<?xml version="1.0" standalone="no"?>
<!DOCTYPE svg PUBLIC "-//W3C//DTD SVG 1.1//EN" "http://www.w3.org/Graphics/SVG/1.1/DTD/svg11.dtd" >
<svg xmlns="http://www.w3.org/2000/svg" xmlns:xlink="http://www.w3.org/1999/xlink" version="1.1">
<metadata>
Created by FontForge 20201107 at Fri Sep  2 12:52:14 2022
 By 
</metadata>
<defs>
<font id="CnGSansRegular" horiz-adv-x="916" >
  <font-face 
    font-family="CnG Sans"
    font-weight="400"
    font-stretch="normal"
    units-per-em="1000"
    panose-1="0 0 0 0 0 0 0 0 0 0"
    ascent="800"
    descent="-200"
    x-height="699"
    cap-height="692"
    bbox="12 -158.565 941.765 796.333"
    underline-thickness="50"
    underline-position="-150"
    unicode-range="U+000A-20AC"
  />
<missing-glyph horiz-adv-x="527" 
d="M50 700h427v-700h-427v700zM78 680l185 -309l186 309h-371zM251 350l-180 300v-601zM264 329l-185 -308h370zM276 350l181 -303v605z" />
    <glyph glyph-name=".notdef" horiz-adv-x="527" 
d="M50 700h427v-700h-427v700zM78 680l185 -309l186 309h-371zM251 350l-180 300v-601zM264 329l-185 -308h370zM276 350l181 -303v605z" />
    <glyph glyph-name=".null" horiz-adv-x="0" 
 />
    <glyph glyph-name=".null" horiz-adv-x="0" 
 />
    <glyph glyph-name="nonmarkingreturn" horiz-adv-x="333" 
 />
    <glyph glyph-name="controlLF" unicode="&#xa;" horiz-adv-x="0" 
 />
    <glyph glyph-name="controlCR" unicode="&#xd;" horiz-adv-x="0" 
 />
    <glyph glyph-name="space" unicode=" " horiz-adv-x="461" 
 />
    <glyph glyph-name="exclam" unicode="!" horiz-adv-x="321" 
d="M161 200q-56 0 -69 1q-6 3 -8 13l1.5 109.5t2 210.5t-0.5 143q-1 11 -1.5 18t-0.5 7.5t-0.5 2t0.5 1.5q1 12 13 13q7 1 49 1h21q58 -1 63 -3q1 0 3 -3l1 -1q1 -2 1 -10l-3 -85q-1 -56 -0.5 -130.5t2 -164t1.5 -90.5q0 -25 -1 -28h-1q-2 -2 -4 -2l-5 -3h-64zM156 157
q7 1 21 -1q20 -4 37 -17q21 -17 29 -45q2 -7 2 -22v-16l-4 -10q-4 -14 -12 -24q-8 -11 -23 -22q-7 -4 -19 -8q-13 -4 -25 -4q-26 0 -46 12q-11 8 -21 19q-23 28 -18 63q2 17 9 31q6 10 17 21q8 8 18 13q16 9 35 10z" />
    <glyph glyph-name="dollar" unicode="$" horiz-adv-x="830" 
d="M705 324q54 -50 54 -128q1 -30 -8 -56q-22 -65 -92 -106t-173 -52v-34q0 -30 -3 -37t-11 -11l-7 -5h-50q-49 0 -53 2q-16 7 -18 31q-1 7 1 55q-20 2 -45 7q-62 11 -118.5 35.5t-92.5 54.5q-26 22 -14 42q7 11 69 60q14 11 24 11t24 -10q56 -43 134 -59q10 -2 22 -4v165
q-101 12 -153 30q-60 21 -91.5 61t-31.5 95q0 44 20 85q16 31 43 59q24 23 57 43q62 36 153 49q-2 49 -1 56q3 29 25 32q8 2 52 1q36 0 44.5 -2t14.5 -11q5 -7 6 -16.5t0 -41.5v-17q104 -10 192 -49q36 -16 47.5 -24.5t11.5 -21.5q0 -10 -22 -40q-10 -15 -24.5 -35
t-23.5 -24q-8 -3 -15 -1.5t-27 12.5q-50 26 -102 38q-18 4 -40 8v-166q161 -23 222 -81zM228 470q11 -24 43 -36q26 -10 77 -16v159q-85 -8 -112 -48q-12 -18 -12 -37q0 -14 4 -22zM622 182q13 31 -23 56q-31 20 -116 31q0 -87 1 -152q78 9 118 39q14 11 20 26z" />
    <glyph glyph-name="percent" unicode="%" horiz-adv-x="714" 
d="M60 455v12.5v11.5q5 43 33 70q19 19 46 24q4 1 13 1t13 -1q12 -2 23 -7q23 -12 38 -35t18 -52q1 -15 -1 -28q-4 -27 -17 -47q-15 -22 -38 -33q-17 -9 -36 -9q-14 0 -27 5q-9 3 -17 8q-42 26 -48 80zM128 473q-1 -11 3 -20q6 -12 17 -14q4 -1 8 0q11 2 17 14q7 15 0 31
q-6 12 -17 14h-4q-5 0 -9 -2q-13 -7 -15 -23zM470 93v12v12q4 42 32 70q20 19 47 24q4 1 13 1t13 -1q12 -2 23 -8q23 -11 38 -34t17 -52q2 -15 0 -28q-4 -27 -18 -47q-15 -23 -37 -34q-17 -8 -36 -8q-14 0 -27 4q-9 4 -18 9q-41 26 -47 80zM538 110q-1 -10 3 -20
q6 -11 17 -14q4 -1 8 0q11 3 16 15q8 15 0 30q-5 12 -17 15h-3q-5 0 -10 -2q-12 -7 -14 -24zM246 -2q-55 0 -68 1q-5 3 -3 11l45.5 116.5t94 240.5t54.5 144q14 43 18 52q5 9 17 10q8 1 49 1h21q59 -1 63 -2q0 -1 2 -3l1 -1q0 -4 -14 -36l-30 -70q-6 -14 -20.5 -52.5
t-32 -85t-37 -99t-35.5 -95t-27 -72.5t-12 -33q-8 -20 -10 -23h-1l-4 -2l-6 -2h-65z" />
    <glyph glyph-name="ampersand" unicode="&#x26;" horiz-adv-x="791" 
d="M589 182h137q0 -9 -3 -22q-20 -80 -116 -129q-101 -52 -239 -45q-101 6 -176 43q-58 29 -90 71.5t-32 92.5q0 33 15 64q21 44 80 79q21 13 21 22q0 5 -1.5 8t-23.5 25q-36 35 -47 70q-16 49 1 96q14 39 45 71q37 36 90 58t114 26q91 7 167.5 -20.5t120.5 -81.5
q32 -39 37 -87h-138q-10 18 -38.5 33t-66.5 21q-9 2 -36.5 3t-37.5 0q-36 -4 -65.5 -14.5t-47 -25.5t-19.5 -33q-2 -24 29.5 -45.5t79.5 -30.5q12 -1 136 -2q9 0 15 -6.5t6 -14.5v-116q0 -9 -6 -15t-15 -6q-103 0 -110 -1q-92 -6 -142 -38q-34 -22 -27 -45.5t52 -42.5
q61 -27 148 -25t144 30q31 15 39 33z" />
    <glyph glyph-name="quotesingle" unicode="'" horiz-adv-x="260" 
d="M134 713q7 1 37 1h29l3 -2q11 -6 1 -27l-6 -14q-3 -9 -5 -14q-10 -22 -12 -29q-1 -3 -4 -9t-5 -13t-6 -14q-3 -8 -3.5 -10t-4 -11t-5.5 -15q-6 -19 -15 -23q-3 -2 -24 -2h-36t-19 1q-7 4 -7 10t7 22q5 12 5.5 13.5t1.5 3t5 12.5q5 13 8 20q3 8 5.5 14t5.5 13.5t4 11.5
q1 3 3.5 8.5t4.5 12.5q5 16 11 29q4 8 11 10q3 1 10 1z" />
    <glyph glyph-name="quotesingle" unicode="&#x2019;" horiz-adv-x="260" 
d="M134 713q7 1 37 1h29l3 -2q11 -6 1 -27l-6 -14q-3 -9 -5 -14q-10 -22 -12 -29q-1 -3 -4 -9t-5 -13t-6 -14q-3 -8 -3.5 -10t-4 -11t-5.5 -15q-6 -19 -15 -23q-3 -2 -24 -2h-36t-19 1q-7 4 -7 10t7 22q5 12 5.5 13.5t1.5 3t5 12.5q5 13 8 20q3 8 5.5 14t5.5 13.5t4 11.5
q1 3 3.5 8.5t4.5 12.5q5 16 11 29q4 8 11 10q3 1 10 1z" />
    <glyph glyph-name="quotesingle" unicode="&#x2018;" horiz-adv-x="260" 
d="M134 713q7 1 37 1h29l3 -2q11 -6 1 -27l-6 -14q-3 -9 -5 -14q-10 -22 -12 -29q-1 -3 -4 -9t-5 -13t-6 -14q-3 -8 -3.5 -10t-4 -11t-5.5 -15q-6 -19 -15 -23q-3 -2 -24 -2h-36t-19 1q-7 4 -7 10t7 22q5 12 5.5 13.5t1.5 3t5 12.5q5 13 8 20q3 8 5.5 14t5.5 13.5t4 11.5
q1 3 3.5 8.5t4.5 12.5q5 16 11 29q4 8 11 10q3 1 10 1z" />
    <glyph glyph-name="parenleft" unicode="(" horiz-adv-x="525" 
d="M453 714q9 -59 10 -93q0 -11 -11 -13q-61 -8 -116 -35q-61 -30 -101 -78.5t-52 -106.5q-9 -42 0 -85q12 -59 52 -107t103 -79q40 -19 85 -29q12 -3 11 -15q0 -4 -7 -83q-1 -8 -7.5 -13t-14.5 -4q-91 20 -162 67q-93 62 -139 154q-35 72 -35 152q0 58 18 111q14 39 35 73
q51 79 134 130t184 64q11 2 13 -10z" />
    <glyph glyph-name="parenright" unicode=")" horiz-adv-x="525" 
d="M72 714q1 12 13 10q101 -13 184 -64t133 -130q22 -34 35 -73q19 -53 19 -111q0 -80 -36 -152q-45 -92 -138 -154q-71 -47 -162 -67q-8 -1 -14.5 4t-7.5 13q-7 79 -8 83q0 12 12 15q45 10 85 29q63 31 103 79t52 107q9 43 0 85q-12 58 -52 106.5t-101 78.5q-55 27 -116 35
q-11 2 -11 13q1 34 10 93z" />
    <glyph glyph-name="plus" unicode="+" horiz-adv-x="644" 
d="M580 446q1 -8 1 -49v-21q-1 -59 -2 -64l-2 -3l-1 -1q-4 -2 -33 0l-62 3q-20 1 -86 0q0 -35 1 -75.5t1 -63v-24.5v-20h-1l-1 -1l-3 -1l-6 -2h-64q-55 0 -68 1q-7 2 -8 9v23.5t0.5 68t1.5 84.5q-35 0 -75 -1t-62 -1h-24h-20l-1 1l-1 4l-2 5v65q0 55 1 68q2 7 9 8h10
t26.5 -0.5t37.5 -0.5t48.5 -0.5t53.5 -0.5q1 111 -1 128q-3 39 -2 47q2 8 13 9q8 1 49 1h21q59 -1 64 -2q0 -1 2 -2l2 -2q2 -3 0 -32l-3 -62q-1 -21 -1 -86q114 -1 131 1q39 3 47 2q8 -2 9 -13z" />
    <glyph glyph-name="comma" unicode="," horiz-adv-x="255" 
d="M128 156h37h29l3 -2q11 -6 1 -27l-6 -14q-3 -9 -5 -13q-10 -23 -12 -30l-4 -8t-5 -13t-6 -15q-3 -7 -3.5 -9.5t-4 -11t-5.5 -15.5q-6 -19 -15 -23q-3 -1 -24 -2h-36t-19 2q-7 3 -7 10q0 5 7 22q5 11 5.5 13t1.5 3t5 13q5 12 8 19q3 8 5.5 14t5.5 14t4 11q1 4 3.5 9.5
t4.5 12.5q5 15 11 28q4 8 11 10q3 1 10 2z" />
    <glyph glyph-name="hyphen" unicode="-" horiz-adv-x="626" 
d="M54 392q0 55 1 69q2 6 9 7q1 0 110 -1t207.5 -2t133.5 1q39 3 47 2q8 -2 9 -13q1 -8 1 -49v-21q0 -58 -2 -64l-2 -2q-1 -1 -1 -2q-4 -2 -33 0l-62 3q-19 1 -84 0.5t-129.5 -1t-121.5 -1.5t-59 -1q-18 0 -20 1l-1 1l-1 3l-2 6v64z" />
    <glyph glyph-name="period" unicode="." horiz-adv-x="276" 
d="M125 155q14 2 26 0q28 -5 48 -24q11 -11 17 -27t6 -31q0 -26 -15 -48q-6 -9 -17 -19q-18 -15 -43 -18q-14 -2 -27 1q-21 5 -37 19q-23 20 -28 47q-4 21 1 40q6 21 21 36q11 10 24 17q12 6 24 7z" />
    <glyph glyph-name="slash" unicode="/" horiz-adv-x="467" 
d="M197 -2h-65q-55 0 -68 1q-5 4 -4 14q1 1 19.5 64.5t46 156t55.5 187t49 168.5t25 90q13 57 18 69q5 13 17 14q8 1 49 1h21q58 0 63 -3l2 -3q1 -1 1 -2q0 -5 -14 -48l-30 -92q-9 -29 -36 -123.5t-54 -190.5t-50.5 -180t-23.5 -87q-8 -27 -10 -30l-1 -1l-4 -2z" />
    <glyph glyph-name="zero" unicode="0" horiz-adv-x="754" 
d="M358 703q102 7 188 -57q12 -10 32.5 -30.5t30.5 -33.5q61 -82 73 -189q2 -16 2 -45q0 -44 -9 -83q-21 -102 -88.5 -174.5t-157.5 -90.5q-40 -8 -81 -4q-95 11 -169 82q-90 88 -107 225q-2 17 -2 50t3 49q10 71 39 129q39 75 105 121.5t141 50.5zM413 565q-10 3 -31.5 4
t-32.5 -2q-44 -10 -78.5 -44.5t-51.5 -86.5q-15 -44 -14 -96q1 -34 9 -63q10 -38 30.5 -69t48.5 -51t59 -26q30 -5 58 2q40 11 73 44q54 54 64 143q5 38 -2 79q-7 36 -23 69q-39 77 -109 97z" />
    <glyph glyph-name="one" unicode="1" horiz-adv-x="565" 
d="M336 680q18 15 28 17q6 2 54 2q52 0 60 -9t5 -48q-1 -28 -2 -75q-1 -51 0 -254.5t2 -228.5q4 -58 -1 -68q-2 -5 -6 -8.5t-9 -5.5t-53.5 -2t-53.5 2q-11 4 -15 11q-6 9 -4 56q2 37 4 166q1 128 2 144q6 108 4 121q-2 18 -13 21q-8 1 -26.5 -10.5t-91.5 -61.5
q-72 -50 -81 -53q-14 -4 -25 6q-5 5 -24 36t-24 39q-11 18 -7 30t26 24q15 8 45 25q73 39 148 85q45 28 58 39z" />
    <glyph glyph-name="two" unicode="2" horiz-adv-x="757" 
d="M321 700q17 2 58.5 1.5t60.5 -3.5q62 -9 107 -31q29 -14 50 -32q43 -36 59.5 -90t0.5 -108q-16 -55 -77 -109q-46 -41 -153 -118q-55 -39 -66 -48q-7 -7 -9 -14.5t2 -11.5q8 -8 46 -6q104 4 207 10q52 3 61 0q12 -3 16 -16q2 -5 2 -55v-49l-4 -8q-4 -8 -10.5 -11
t-22.5 -3t-41 1q-67 4 -237.5 4t-221.5 -3q-43 -3 -54.5 -2t-18.5 8q-8 9 -8 39q0 39 6 51q3 7 12 14.5t36 27.5q63 44 180 139q82 65 121 95q64 50 81 68q15 14 20.5 25t5.5 24t-5 23q-22 45 -109 54q-44 5 -80 0q-70 -11 -103 -50q-5 -7 -14 -24q-7 -14 -12 -19.5
t-13 -7.5q-7 -2 -51 -3.5t-51 0.5q-16 3 -20 18q-3 14 6.5 43t24.5 53q34 50 90.5 82t127.5 42z" />
    <glyph glyph-name="three" unicode="3" horiz-adv-x="775" 
d="M128.5 700q6.5 1 14.5 1q91 -6 236.5 -6.5t223.5 5.5q44 2 54 -2q10 -6 13 -18q2 -6 1.5 -20t-1.5 -21q-2 -13 -9 -21.5t-31 -28.5q-22 -18 -42 -36q-6 -5 -18 -14.5t-14 -12.5q-101 -85 -106 -93q-2 -4 -2 -10t4 -10q7 -5 35 -10q85 -12 138 -47q22 -15 41.5 -38
t27.5 -45q12 -30 12 -62q0 -40 -17 -75q-18 -34 -52 -62t-81 -46.5t-101 -25.5q-91 -11 -173 7t-137.5 59.5t-74.5 97.5q-10 33 5 45q8 7 25 7q9 0 29.5 -1t39 -2.5t21.5 -2.5q11 -3 26 -20q16 -19 39 -31q66 -35 163.5 -28t139.5 49q10 10 12 17q10 30 -26 54
q-34 23 -101 32q-33 4 -131 0q-31 -2 -41 -1t-15 7q-5 5 -6.5 9.5t-2 14t-0.5 36.5q0 55 6 67q5 10 42 40q59 50 79 68q30 28 9 40q-10 5 -193 -7q-41 -3 -52 -3q-25 0 -31 18q-2 7 -2 54.5t1 52.5q3 11 13 17q3 1 9.5 2z" />
    <glyph glyph-name="four" unicode="4" horiz-adv-x="764" 
d="M514 698h65t30 -3q7 -5 9 -11.5t2 -22.5q-1 -20 -2 -51q-3 -51 -5 -278q0 -18 8.5 -24.5t28.5 -4.5q33 3 42 -11l4 -5l1 -48q0 -38 -1 -47.5t-6 -15.5q-5 -5 -11.5 -6t-26.5 -1q-24 0 -28 -3q-6 -4 -8 -9.5t-2 -19.5q1 -17 4 -54q4 -58 -1 -67q-5 -11 -16 -13t-55 -2
q-38 0 -46.5 1.5t-15.5 7.5q-6 5 -6.5 19t3.5 57q6 67 2 75q-3 4 -6 7q-6 5 -14 5.5t-36 -0.5q-34 -2 -137 -3q-116 -2 -178 -6q-30 -2 -39 3q-7 4 -11 13q-2 4 -2.5 20.5t0.5 27.5q2 15 8.5 24.5t33.5 37.5q49 50 101 111q85 96 119 135q68 75 111 128q21 25 30 29t51 5z
M482.5 501.5q-3.5 3.5 -8.5 3.5q-7 0 -14 -6t-26 -28q-44 -53 -89 -102q-31 -34 -37 -42t-6 -16q0 -10 14 -14q6 -1 76 -1q60 0 72 1t18 8q4 5 5 11q2 7 2 89t-1.5 87.5t-5 9z" />
    <glyph glyph-name="five" unicode="5" horiz-adv-x="772" 
d="M586 700q44 2 54 -3q7 -3 11 -11l4 -8v-48q-1 -48 -2 -52q-4 -13 -14 -18q-9 -4 -59 -1q-53 3 -170.5 5.5t-125.5 0.5q-15 -4 -20 -21q-3 -10 -9 -44.5t-6 -40.5q0 -8 3 -13q8 -12 33 -6q127 33 242 -6q48 -15 82 -40q74 -53 90 -129q7 -31 2 -64q-9 -51 -44 -94t-92 -70
q-53 -26 -119 -36q-45 -6 -99 -2q-144 12 -223 94q-38 41 -52 91q-9 37 10 47q9 5 69 1q37 -2 44.5 -6t19.5 -25q12 -22 36 -37.5t59 -23.5t78 -8q33 0 63.5 6.5t55 18.5t41.5 28q19 19 20 41q1 26 -21 48q-33 32 -96 45.5t-125 0.5q-26 -5 -56 -19l-19 -8h-14q-15 0 -36 6
q-21 7 -43 13q-26 7 -36 10t-14.5 6.5t-7.5 9.5q-5 10 3 45q11 56 19 98q15 87 25 161q5 44 15 51q7 5 16.5 5.5t53.5 -0.5q51 -2 184.5 -1t169.5 3z" />
    <glyph glyph-name="six" unicode="6" horiz-adv-x="774" 
d="M506 714q5 1 23 0.5t22 -1.5q15 -4 15 -17q0 -9 -7 -18.5t-42 -49.5q-26 -30 -53 -60q-24 -28 -29 -34q-36 -39 -44 -51q-13 -20 2 -29q5 -3 29 -4q43 -2 74 -8q93 -19 154 -83q42 -42 55 -97q3 -14 3.5 -39t-2.5 -39q-19 -88 -108.5 -143.5t-210.5 -55.5q-161 0 -257 91
q-46 45 -61 102q-4 17 -4 44t4 43q13 47 53 93q128 147 256 316q22 28 34 33q8 4 49.5 5t44.5 2zM428 322q-40 7 -79 2q-61 -8 -103 -34.5t-48 -59.5q-3 -19 8 -37.5t32 -33t52 -25t67 -14.5q40 -4 77 3q60 10 98 34.5t43 55.5q6 37 -35.5 67.5t-111.5 41.5z" />
    <glyph glyph-name="seven" unicode="7" horiz-adv-x="719" 
d="M82 710q7 1 16 1q60 -3 208 -5q197 -2 283 3q45 2 52 0q13 -4 17.5 -16t1.5 -41q-1 -18 -4.5 -26t-30.5 -53q-32 -54 -102 -181q-23 -43 -62 -113q-91 -165 -123 -228q-21 -41 -25 -47q-9 -11 -25 -13q-9 -2 -62.5 -2.5t-60.5 2.5q-17 7 -9 29q3 7 23 40q44 72 125 223
q69 127 118 210q29 49 32 55q6 18 -6 25q-10 5 -62 3q-51 -3 -195 -7q-55 -1 -78 -3q-17 -1 -27.5 0t-16 4.5t-8.5 11.5q-3 6 -3 56.5t3 57.5q7 12 21 14z" />
    <glyph glyph-name="eight" unicode="8" horiz-adv-x="797" 
d="M364 712q91 7 167.5 -20.5t120.5 -81.5q26 -32 34.5 -69.5t-2.5 -73.5q-11 -39 -49 -76q-22 -22 -23 -25q-7 -13 14 -26q38 -24 54 -40q30 -31 41 -68q4 -13 5 -34.5t-3 -37.5q-20 -80 -116 -129q-101 -52 -239 -44q-101 5 -176 42q-58 29 -90 71.5t-32 92.5q0 33 15 64
q21 44 80 79q21 13 21 22q0 5 -1.5 8t-23.5 25q-36 35 -47 70q-16 49 1 96q14 39 45 71q37 36 90 58t114 26zM446 577q-6 2 -22 2.5t-30 1t-22 -0.5q-55 -5 -92.5 -25.5t-39.5 -46.5q-1 -10 4 -19.5t14.5 -18.5t23 -16.5t31 -13t36.5 -8.5q18 -3 50.5 -3t50.5 3
q47 8 77 28.5t30 44t-31.5 44t-79.5 28.5zM451 268q-42 5 -76 2q-92 -6 -142 -38q-34 -22 -27 -45.5t52 -42.5q61 -27 148 -25t144 30q43 21 42 45.5t-45 46.5q-39 20 -96 27z" />
    <glyph glyph-name="nine" unicode="9" horiz-adv-x="774" 
d="M357 702q78 4 148.5 -16t122.5 -62q85 -68 81 -166q-2 -40 -22 -78q-11 -22 -43 -59q-135 -158 -229 -283q-21 -27 -30.5 -32.5t-41.5 -6.5q-29 -2 -67 -2h-37l-6 3q-8 6 -8 16q0 7 8 17.5t36 41.5q105 118 113 129q9 13 5 22q-2 6 -9 8t-33 3q-76 5 -128 26
q-35 15 -64 37t-49.5 49.5t-30.5 58.5q-21 64 4.5 127t90.5 106q81 54 189 61zM552 514q-19 19 -55.5 33.5t-75.5 18.5q-91 9 -164 -27q-52 -26 -58.5 -64t35.5 -69q20 -15 50 -26t64 -15.5t63 -2.5q78 7 125 41q23 16 33 36q19 39 -17 75z" />
    <glyph glyph-name="colon" unicode=":" horiz-adv-x="298" 
d="M136 155q14 2 26 0q28 -5 48 -24q11 -11 17 -27t6 -31q0 -26 -15 -48q-6 -9 -17 -19q-18 -15 -43 -18q-14 -2 -27 1q-21 5 -37 19q-23 20 -28 47q-4 21 1 40q6 21 21 36q11 10 24 17q12 6 24 7zM136 468q14 2 26 -1q28 -4 48 -24q11 -11 17 -27q6 -15 6 -31
q0 -26 -15 -48q-6 -9 -17 -19q-18 -14 -43 -18q-14 -1 -27 2q-21 4 -37 18q-23 20 -28 47q-4 22 1 40q6 21 21 36q11 11 24 17q12 6 24 8z" />
    <glyph glyph-name="semicolon" unicode=";" horiz-adv-x="312" 
d="M138 156h37h29l3 -2q11 -6 1 -27l-6 -14q-3 -9 -5 -13q-10 -23 -12 -30l-4 -8t-5 -13t-6 -15q-3 -7 -3.5 -9.5t-4 -11t-5.5 -15.5q-6 -19 -15 -23q-3 -1 -24 -2h-36t-19 2q-7 3 -7 10q0 5 7 22q5 11 5.5 13t1.5 3t5 13q5 12 8 19q3 8 5.5 14t5.5 14t4 11q1 4 3.5 9.5
t4.5 12.5q5 15 11 28q4 8 11 10q3 1 10 2zM156 468q14 2 26 -1q28 -4 47 -24q11 -11 18 -27q6 -15 6 -31q0 -26 -15 -48q-6 -9 -18 -19q-17 -14 -42 -18q-14 -1 -28 2q-20 4 -36 18q-24 20 -28 47q-4 22 1 40q6 21 21 36q10 11 23 17t25 8z" />
    <glyph glyph-name="equal" unicode="=" horiz-adv-x="581" 
d="M65 203v65q0 55 1 68q2 7 8 8l95 -1t180.5 -2t116.5 1q33 3 40 2q8 -2 9 -13v-49v-21q0 -59 -2 -64l-2 -3q0 -1 -1 -1q-2 -2 -28 0l-54 3q-16 1 -72.5 0.5t-112.5 -1.5t-105.5 -1.5t-51.5 -0.5h-18v2q-1 2 -1 3zM65 433v65q0 55 1 68q2 6 8 8l95 -1.5t180.5 -2t116.5 0.5
q33 4 40 3q8 -2 9 -14v-48v-21q0 -59 -2 -64l-2 -3q0 -1 -1 -1q-2 -2 -28 0l-54 3q-16 1 -72.5 0.5t-112.5 -1.5t-105.5 -1.5t-51.5 -0.5h-18v1q-1 2 -1 4z" />
    <glyph glyph-name="question" unicode="?" horiz-adv-x="761" 
d="M697 542q0 -32 -12 -62q-8 -22 -27.5 -44.5t-41.5 -38.5q-53 -35 -138 -47q-8 -1 -23.5 -2.5t-29 -2.5t-25 -2t-13.5 -3q-3 -3 -4 -5v-7q-1 -32 -1 -65v-46.5t-1 -13.5l-6 -3h-64q-56 0 -69 1q-6 3 -7 13l1 17.5t2 53t1 75.5q-1 10 -1 29v12v2q0 36 1.5 44.5t7.5 14.5
q5 6 15 7t41 0q98 -5 131 -1q67 9 101 32q36 24 26 54q-2 7 -12 17q-42 42 -139.5 49t-163.5 -27q-23 -13 -39 -32q-15 -17 -26 -20q-4 -1 -40 -3.5t-50 -2.5q-17 0 -25 7q-15 12 -5 45q13 38 42 69t72.5 53.5t97.5 34.5q82 18 173 7q82 -11 145 -46.5t89 -87.5
q17 -35 17 -75zM364 139q22 -17 29 -45q2 -7 2 -22v-16l-3 -10q-5 -14 -13 -24q-8 -11 -23 -22q-7 -4 -19 -8t-25 -4q-25 0 -45 12q-12 8 -22 19q-23 28 -18 63q2 17 10 31q5 10 16 21q9 8 18 13q16 9 36 10q7 1 20 -1q21 -4 37 -17z" />
    <glyph glyph-name="at" unicode="@" horiz-adv-x="1011" 
d="M512 -36q-51 0 -78 4q-109 17 -191 72q-93 62 -139 154q-35 72 -35 152q0 58 18 111q14 39 35 73q52 82 138 133t191 63q19 2 58 2q28 0 42 -2q173 -17 285 -132q83 -86 102 -203q8 -48 -1 -99q-8 -41 -22 -76l-5 -10q-9 -20 -16.5 -33.5t-23.5 -34.5t-38 -34.5
t-50 -19.5q-10 -2 -21 -2q-44 0 -88.5 30t-71.5 93q-2 3 -10 23q-6 16 -8 20h-2q-7 0 -33 -1h-43h-44q-20 1 -31 1h-3q-3 -5 -9 -21q-9 -22 -11 -26q-8 -14 -22 -18q-9 -3 -57 -3h-9q-16 2 -24 15q-11 17 5 45q28 49 69 136q23 49 45 94q14 29 23 50q4 9 6 13t6 9.5t8 8.5
t10 5q7 2 37 2h5q21 0 29 -1t15 -7q8 -6 17 -26q10 -23 25 -53q27 -57 38 -81q43 -92 72 -143q26 -49 54 -49q27 0 49 50q14 30 19 59q3 14 3 39q0 53 -24 101q-33 64 -100 107.5t-150 53.5q-27 4 -53 4q-89 0 -167 -39q-61 -30 -101 -78.5t-52 -106.5q-9 -42 0 -85
q12 -59 52 -107t103 -79q77 -38 166 -38q51 0 99 13q5 1 10 1q26 0 35 -24q6 -14 14 -39q6 -15 -2 -30t-23 -19q-43 -12 -87 -16q-14 -1 -38 -1zM505 414q-11 -25 -22 -45q-6 -14 -8 -17q13 1 30 1q16 0 29 -1q-19 38 -28 58q0 1 -0.5 2t-0.5 2z" />
    <glyph glyph-name="A" unicode="A" horiz-adv-x="828" 
d="M351 688q7 3 63 3h35.5t19.5 -1t11.5 -2.5t6.5 -4.5q7 -6 21 -36q20 -47 51 -111q56 -117 80 -166q89 -191 149 -298q16 -29 19 -36t3 -15q1 -12 -10 -18q-4 -2 -54 -2t-59 1q-23 2 -33 23q-4 8 -20 47q-17 43 -23 53t-15 14q-8 3 -93 1q-90 -3 -178 0q-41 1 -64 1
q-22 1 -30 -3q-9 -4 -14 -13t-23 -54q-18 -44 -21 -50q-8 -13 -20 -17q-4 -1 -56.5 -2.5t-59.5 -0.5q-12 1 -17 10q-8 12 12 46q59 103 143 283q49 102 93 194q30 61 49 105q13 30 18.5 38t15.5 11zM421 520q-12 6 -22 -9q-4 -5 -26 -54t-43 -92q-30 -59 -34 -67t-4 -14
q0 -11 9 -16q6 -3 35 -2h76.5h78.5q24 -1 31 0.5t11 7.5q7 8 -8 37q-47 94 -66 138l-16.5 36t-10 20.5t-6.5 10.5t-5 4z" />
    <glyph glyph-name="A" unicode="&#xc5;" horiz-adv-x="828" 
d="M351 688q7 3 63 3h35.5t19.5 -1t11.5 -2.5t6.5 -4.5q7 -6 21 -36q20 -47 51 -111q56 -117 80 -166q89 -191 149 -298q16 -29 19 -36t3 -15q1 -12 -10 -18q-4 -2 -54 -2t-59 1q-23 2 -33 23q-4 8 -20 47q-17 43 -23 53t-15 14q-8 3 -93 1q-90 -3 -178 0q-41 1 -64 1
q-22 1 -30 -3q-9 -4 -14 -13t-23 -54q-18 -44 -21 -50q-8 -13 -20 -17q-4 -1 -56.5 -2.5t-59.5 -0.5q-12 1 -17 10q-8 12 12 46q59 103 143 283q49 102 93 194q30 61 49 105q13 30 18.5 38t15.5 11zM421 520q-12 6 -22 -9q-4 -5 -26 -54t-43 -92q-30 -59 -34 -67t-4 -14
q0 -11 9 -16q6 -3 35 -2h76.5h78.5q24 -1 31 0.5t11 7.5q7 8 -8 37q-47 94 -66 138l-16.5 36t-10 20.5t-6.5 10.5t-5 4z" />
    <glyph glyph-name="A" unicode="&#xc4;" horiz-adv-x="828" 
d="M351 688q7 3 63 3h35.5t19.5 -1t11.5 -2.5t6.5 -4.5q7 -6 21 -36q20 -47 51 -111q56 -117 80 -166q89 -191 149 -298q16 -29 19 -36t3 -15q1 -12 -10 -18q-4 -2 -54 -2t-59 1q-23 2 -33 23q-4 8 -20 47q-17 43 -23 53t-15 14q-8 3 -93 1q-90 -3 -178 0q-41 1 -64 1
q-22 1 -30 -3q-9 -4 -14 -13t-23 -54q-18 -44 -21 -50q-8 -13 -20 -17q-4 -1 -56.5 -2.5t-59.5 -0.5q-12 1 -17 10q-8 12 12 46q59 103 143 283q49 102 93 194q30 61 49 105q13 30 18.5 38t15.5 11zM421 520q-12 6 -22 -9q-4 -5 -26 -54t-43 -92q-30 -59 -34 -67t-4 -14
q0 -11 9 -16q6 -3 35 -2h76.5h78.5q24 -1 31 0.5t11 7.5q7 8 -8 37q-47 94 -66 138l-16.5 36t-10 20.5t-6.5 10.5t-5 4z" />
    <glyph glyph-name="A" unicode="&#xc3;" horiz-adv-x="828" 
d="M351 688q7 3 63 3h35.5t19.5 -1t11.5 -2.5t6.5 -4.5q7 -6 21 -36q20 -47 51 -111q56 -117 80 -166q89 -191 149 -298q16 -29 19 -36t3 -15q1 -12 -10 -18q-4 -2 -54 -2t-59 1q-23 2 -33 23q-4 8 -20 47q-17 43 -23 53t-15 14q-8 3 -93 1q-90 -3 -178 0q-41 1 -64 1
q-22 1 -30 -3q-9 -4 -14 -13t-23 -54q-18 -44 -21 -50q-8 -13 -20 -17q-4 -1 -56.5 -2.5t-59.5 -0.5q-12 1 -17 10q-8 12 12 46q59 103 143 283q49 102 93 194q30 61 49 105q13 30 18.5 38t15.5 11zM421 520q-12 6 -22 -9q-4 -5 -26 -54t-43 -92q-30 -59 -34 -67t-4 -14
q0 -11 9 -16q6 -3 35 -2h76.5h78.5q24 -1 31 0.5t11 7.5q7 8 -8 37q-47 94 -66 138l-16.5 36t-10 20.5t-6.5 10.5t-5 4z" />
    <glyph glyph-name="A" unicode="&#xc2;" horiz-adv-x="828" 
d="M351 688q7 3 63 3h35.5t19.5 -1t11.5 -2.5t6.5 -4.5q7 -6 21 -36q20 -47 51 -111q56 -117 80 -166q89 -191 149 -298q16 -29 19 -36t3 -15q1 -12 -10 -18q-4 -2 -54 -2t-59 1q-23 2 -33 23q-4 8 -20 47q-17 43 -23 53t-15 14q-8 3 -93 1q-90 -3 -178 0q-41 1 -64 1
q-22 1 -30 -3q-9 -4 -14 -13t-23 -54q-18 -44 -21 -50q-8 -13 -20 -17q-4 -1 -56.5 -2.5t-59.5 -0.5q-12 1 -17 10q-8 12 12 46q59 103 143 283q49 102 93 194q30 61 49 105q13 30 18.5 38t15.5 11zM421 520q-12 6 -22 -9q-4 -5 -26 -54t-43 -92q-30 -59 -34 -67t-4 -14
q0 -11 9 -16q6 -3 35 -2h76.5h78.5q24 -1 31 0.5t11 7.5q7 8 -8 37q-47 94 -66 138l-16.5 36t-10 20.5t-6.5 10.5t-5 4z" />
    <glyph glyph-name="A" unicode="&#xc1;" horiz-adv-x="828" 
d="M351 688q7 3 63 3h35.5t19.5 -1t11.5 -2.5t6.5 -4.5q7 -6 21 -36q20 -47 51 -111q56 -117 80 -166q89 -191 149 -298q16 -29 19 -36t3 -15q1 -12 -10 -18q-4 -2 -54 -2t-59 1q-23 2 -33 23q-4 8 -20 47q-17 43 -23 53t-15 14q-8 3 -93 1q-90 -3 -178 0q-41 1 -64 1
q-22 1 -30 -3q-9 -4 -14 -13t-23 -54q-18 -44 -21 -50q-8 -13 -20 -17q-4 -1 -56.5 -2.5t-59.5 -0.5q-12 1 -17 10q-8 12 12 46q59 103 143 283q49 102 93 194q30 61 49 105q13 30 18.5 38t15.5 11zM421 520q-12 6 -22 -9q-4 -5 -26 -54t-43 -92q-30 -59 -34 -67t-4 -14
q0 -11 9 -16q6 -3 35 -2h76.5h78.5q24 -1 31 0.5t11 7.5q7 8 -8 37q-47 94 -66 138l-16.5 36t-10 20.5t-6.5 10.5t-5 4z" />
    <glyph glyph-name="A" unicode="&#xc0;" horiz-adv-x="828" 
d="M351 688q7 3 63 3h35.5t19.5 -1t11.5 -2.5t6.5 -4.5q7 -6 21 -36q20 -47 51 -111q56 -117 80 -166q89 -191 149 -298q16 -29 19 -36t3 -15q1 -12 -10 -18q-4 -2 -54 -2t-59 1q-23 2 -33 23q-4 8 -20 47q-17 43 -23 53t-15 14q-8 3 -93 1q-90 -3 -178 0q-41 1 -64 1
q-22 1 -30 -3q-9 -4 -14 -13t-23 -54q-18 -44 -21 -50q-8 -13 -20 -17q-4 -1 -56.5 -2.5t-59.5 -0.5q-12 1 -17 10q-8 12 12 46q59 103 143 283q49 102 93 194q30 61 49 105q13 30 18.5 38t15.5 11zM421 520q-12 6 -22 -9q-4 -5 -26 -54t-43 -92q-30 -59 -34 -67t-4 -14
q0 -11 9 -16q6 -3 35 -2h76.5h78.5q24 -1 31 0.5t11 7.5q7 8 -8 37q-47 94 -66 138l-16.5 36t-10 20.5t-6.5 10.5t-5 4z" />
    <glyph glyph-name="B" unicode="B" horiz-adv-x="793" 
d="M94 689q6 2 80 -1q34 -1 178 -1t155 -2q64 -8 109.5 -36t67.5 -72q25 -50 19 -104q-4 -31 -21 -65q-13 -25 -13 -29q0 -9 20 -30q22 -23 34 -44q19 -36 21 -85t-14 -87q-22 -55 -76 -88t-132 -39q-18 -2 -173 -2t-188 -1q-62 -3 -71 1q-10 5 -12 16t0 48.5t3 235.5
q0 261 -4 334q-3 35 7 45q5 5 10 6zM386 557q-116 1 -133 1q-30 2 -39 -9q-6 -7 -6 -61v-46l3 -7q4 -6 10 -10q6 -3 17.5 -3t63.5 2q47 1 120 1q38 -1 60 -0.5t31 1.5t18 5q43 16 43 57q0 26 -19 44q-9 9 -23 15h-1q-15 6 -32.5 7.5t-107.5 2.5h-5zM297 298q-31 1 -48 2
q-30 1 -37 -13q-3 -5 -3.5 -65t1.5 -68q3 -15 17 -19q8 -2 49.5 -0.5t143 2t116.5 3.5q78 14 78 73q0 61 -69 78q-13 3 -22 4t-37 1.5t-79 -0.5q-76 0 -110 2z" />
    <glyph glyph-name="C" unicode="C" horiz-adv-x="815" 
d="M432 694q54 3 103 -4q111 -14 207 -74q39 -23 34 -42q-2 -7 -7 -13.5t-27 -30.5q-14 -15 -24 -26q-16 -18 -29 -18q-11 0 -30 15q-28 21 -61 35q-51 22 -115 25t-123 -14q-57 -17 -101 -50t-66 -76q-37 -75 0 -150q15 -30 44 -57q66 -64 173 -80q47 -7 97 -1q57 6 102 28
q22 11 44 26q20 14 29 14q14 0 35 -25q8 -11 25 -30q25 -28 25 -39t-7 -18.5t-25 -18.5q-103 -61 -225 -71.5t-229 32.5q-71 29 -125 76.5t-84 108.5q-32 66 -30 140q4 108 82 197q54 60 136.5 98t171.5 43z" />
    <glyph glyph-name="C" unicode="&#xc7;" horiz-adv-x="815" 
d="M432 694q54 3 103 -4q111 -14 207 -74q39 -23 34 -42q-2 -7 -7 -13.5t-27 -30.5q-14 -15 -24 -26q-16 -18 -29 -18q-11 0 -30 15q-28 21 -61 35q-51 22 -115 25t-123 -14q-57 -17 -101 -50t-66 -76q-37 -75 0 -150q15 -30 44 -57q66 -64 173 -80q47 -7 97 -1q57 6 102 28
q22 11 44 26q20 14 29 14q14 0 35 -25q8 -11 25 -30q25 -28 25 -39t-7 -18.5t-25 -18.5q-103 -61 -225 -71.5t-229 32.5q-71 29 -125 76.5t-84 108.5q-32 66 -30 140q4 108 82 197q54 60 136.5 98t171.5 43z" />
    <glyph glyph-name="D" unicode="D" horiz-adv-x="797" 
d="M102 689q10 1 27 0q84 -5 179 -3q81 1 122 -4q138 -18 222 -100q25 -24 44 -52q34 -51 47 -112q10 -53 5 -113t-24 -107q-9 -21 -21 -41q-69 -115 -235 -143q-23 -4 -38.5 -5.5t-42.5 -2t-101 -0.5q-127 -1 -154 -3q-25 -2 -33.5 -0.5t-14.5 7.5q-10 9 -7 43
q2 26 2.5 269.5t-1.5 284.5q-3 60 1 69q6 12 23 13zM334 554q-46 1 -77 2q-26 1 -31 -1q-10 -4 -14 -15q-3 -6 -1 -54q4 -125 1 -226q-2 -67 -2 -87.5t4 -26.5q6 -11 26 -11q19 0 136 4q136 5 192 60q36 36 46 97q2 12 2.5 37t-1.5 37q-9 77 -64 124t-147 56q-19 2 -70 4z
" />
    <glyph glyph-name="E" unicode="E" horiz-adv-x="702" 
d="M100 689q8 1 14 1q109 -6 322 -4q112 2 148 4q36 1 43 0q13 -2 19 -13l3 -6l1 -48q0 -42 -1 -52t-8 -16t-15.5 -7t-32.5 0q-41 2 -226 6q-87 2 -110 2q-27 1 -33 -2q-11 -4 -14 -15q-1 -5 -1 -69q-1 -53 0.5 -63.5t7.5 -15.5q7 -6 22 -6t105 5q73 5 80 4q15 -2 21 -13
l4 -7v-47q0 -38 -1 -47.5t-6 -15.5q-7 -7 -19.5 -8.5t-61.5 1.5q-123 7 -134 5q-15 -4 -18 -17q-2 -6 -1.5 -49t3.5 -49q6 -10 20 -13q7 -1 40 0q32 2 143 4t140 3.5t56 2t33 -1.5q12 -6 15 -18q2 -6 2 -52q0 -28 -0.5 -38.5t-2 -15.5t-5.5 -9q-7 -7 -17 -8t-49 1
q-42 3 -228 3t-221 -2q-31 -2 -39 -1t-14 7.5t-7.5 14t0.5 31.5q2 29 3 98q1 65 0.5 239.5t-2.5 211.5q-3 64 1 72q6 12 21 13z" />
    <glyph glyph-name="E" unicode="&#xcb;" horiz-adv-x="702" 
d="M100 689q8 1 14 1q109 -6 322 -4q112 2 148 4q36 1 43 0q13 -2 19 -13l3 -6l1 -48q0 -42 -1 -52t-8 -16t-15.5 -7t-32.5 0q-41 2 -226 6q-87 2 -110 2q-27 1 -33 -2q-11 -4 -14 -15q-1 -5 -1 -69q-1 -53 0.5 -63.5t7.5 -15.5q7 -6 22 -6t105 5q73 5 80 4q15 -2 21 -13
l4 -7v-47q0 -38 -1 -47.5t-6 -15.5q-7 -7 -19.5 -8.5t-61.5 1.5q-123 7 -134 5q-15 -4 -18 -17q-2 -6 -1.5 -49t3.5 -49q6 -10 20 -13q7 -1 40 0q32 2 143 4t140 3.5t56 2t33 -1.5q12 -6 15 -18q2 -6 2 -52q0 -28 -0.5 -38.5t-2 -15.5t-5.5 -9q-7 -7 -17 -8t-49 1
q-42 3 -228 3t-221 -2q-31 -2 -39 -1t-14 7.5t-7.5 14t0.5 31.5q2 29 3 98q1 65 0.5 239.5t-2.5 211.5q-3 64 1 72q6 12 21 13z" />
    <glyph glyph-name="E" unicode="&#xca;" horiz-adv-x="702" 
d="M100 689q8 1 14 1q109 -6 322 -4q112 2 148 4q36 1 43 0q13 -2 19 -13l3 -6l1 -48q0 -42 -1 -52t-8 -16t-15.5 -7t-32.5 0q-41 2 -226 6q-87 2 -110 2q-27 1 -33 -2q-11 -4 -14 -15q-1 -5 -1 -69q-1 -53 0.5 -63.5t7.5 -15.5q7 -6 22 -6t105 5q73 5 80 4q15 -2 21 -13
l4 -7v-47q0 -38 -1 -47.5t-6 -15.5q-7 -7 -19.5 -8.5t-61.5 1.5q-123 7 -134 5q-15 -4 -18 -17q-2 -6 -1.5 -49t3.5 -49q6 -10 20 -13q7 -1 40 0q32 2 143 4t140 3.5t56 2t33 -1.5q12 -6 15 -18q2 -6 2 -52q0 -28 -0.5 -38.5t-2 -15.5t-5.5 -9q-7 -7 -17 -8t-49 1
q-42 3 -228 3t-221 -2q-31 -2 -39 -1t-14 7.5t-7.5 14t0.5 31.5q2 29 3 98q1 65 0.5 239.5t-2.5 211.5q-3 64 1 72q6 12 21 13z" />
    <glyph glyph-name="E" unicode="&#xc9;" horiz-adv-x="702" 
d="M100 689q8 1 14 1q109 -6 322 -4q112 2 148 4q36 1 43 0q13 -2 19 -13l3 -6l1 -48q0 -42 -1 -52t-8 -16t-15.5 -7t-32.5 0q-41 2 -226 6q-87 2 -110 2q-27 1 -33 -2q-11 -4 -14 -15q-1 -5 -1 -69q-1 -53 0.5 -63.5t7.5 -15.5q7 -6 22 -6t105 5q73 5 80 4q15 -2 21 -13
l4 -7v-47q0 -38 -1 -47.5t-6 -15.5q-7 -7 -19.5 -8.5t-61.5 1.5q-123 7 -134 5q-15 -4 -18 -17q-2 -6 -1.5 -49t3.5 -49q6 -10 20 -13q7 -1 40 0q32 2 143 4t140 3.5t56 2t33 -1.5q12 -6 15 -18q2 -6 2 -52q0 -28 -0.5 -38.5t-2 -15.5t-5.5 -9q-7 -7 -17 -8t-49 1
q-42 3 -228 3t-221 -2q-31 -2 -39 -1t-14 7.5t-7.5 14t0.5 31.5q2 29 3 98q1 65 0.5 239.5t-2.5 211.5q-3 64 1 72q6 12 21 13z" />
    <glyph glyph-name="E" unicode="&#xc8;" horiz-adv-x="702" 
d="M100 689q8 1 14 1q109 -6 322 -4q112 2 148 4q36 1 43 0q13 -2 19 -13l3 -6l1 -48q0 -42 -1 -52t-8 -16t-15.5 -7t-32.5 0q-41 2 -226 6q-87 2 -110 2q-27 1 -33 -2q-11 -4 -14 -15q-1 -5 -1 -69q-1 -53 0.5 -63.5t7.5 -15.5q7 -6 22 -6t105 5q73 5 80 4q15 -2 21 -13
l4 -7v-47q0 -38 -1 -47.5t-6 -15.5q-7 -7 -19.5 -8.5t-61.5 1.5q-123 7 -134 5q-15 -4 -18 -17q-2 -6 -1.5 -49t3.5 -49q6 -10 20 -13q7 -1 40 0q32 2 143 4t140 3.5t56 2t33 -1.5q12 -6 15 -18q2 -6 2 -52q0 -28 -0.5 -38.5t-2 -15.5t-5.5 -9q-7 -7 -17 -8t-49 1
q-42 3 -228 3t-221 -2q-31 -2 -39 -1t-14 7.5t-7.5 14t0.5 31.5q2 29 3 98q1 65 0.5 239.5t-2.5 211.5q-3 64 1 72q6 12 21 13z" />
    <glyph glyph-name="F" unicode="F" horiz-adv-x="673" 
d="M101 690q6 1 11 0q67 -4 235 -3q153 0 192 1q86 4 92 2q12 -3 17 -16q3 -5 3 -55q0 -41 -1.5 -50t-8.5 -15q-9 -8 -47 -6q-42 3 -225 6q-81 2 -111 3q-29 0 -35.5 -3t-9.5 -10l-3 -7l-1 -133l4 -6q4 -8 10.5 -10t23.5 -2q19 0 96 5q66 4 78.5 3.5t20.5 -7.5
q3 -4 4.5 -6.5t3 -10t1.5 -17.5v-31q0 -37 -1 -46t-7 -15q-7 -8 -19.5 -8.5t-71.5 3.5q-90 5 -107.5 5.5t-23.5 -3.5q-10 -6 -11 -24q0 -16 8 -164q2 -34 1 -44.5t-6 -15.5q-6 -7 -15 -8.5t-50 -1.5q-49 0 -56 3q-12 5 -15 16q-2 8 2 91q2 40 2 251.5t-2 248.5q-2 36 -2 47
q0 29 24 33z" />
    <glyph glyph-name="G" unicode="G" horiz-adv-x="854" 
d="M420 693q16 1 55.5 0.5t53.5 -2.5q118 -16 211 -73q21 -13 28.5 -21.5t7.5 -17.5t-7 -18t-41 -44q-21 -22 -27 -25q-12 -6 -24 0q-5 3 -16 10q-70 51 -164 58q-107 9 -198 -39q-69 -35 -101.5 -92.5t-18.5 -119t71 -108t138 -64.5q39 -8 83 -8q89 0 159 34q25 12 31 24
q4 9 5 27t-3 29t-16 14t-105 -3q-59 -4 -69 1q-11 5 -14 21q-1 8 -1.5 45.5t0.5 44.5q2 16 15 21q6 3 34 2t53 -2q26 -1 82.5 -1t79.5 1q52 3 60 -1q16 -8 14 -38q-5 -80 -2 -162q1 -45 -1 -56t-14 -23q-13 -12 -41 -31q-90 -60 -207 -76q-19 -3 -65.5 -3t-64.5 3
q-37 5 -71 15q-103 28 -178 96.5t-99 155.5q-10 36 -10 79q0 34 3 49q26 137 153 222q98 65 221 76z" />
    <glyph glyph-name="H" unicode="H" horiz-adv-x="824" 
d="M139 692h54q24 -3 27 -26q1 -7 -1 -45q-2 -37 -3 -62t-3 -77q-2 -62 -1.5 -73.5t8.5 -17.5q10 -8 26 -6q23 3 132 4t156 -1q44 -3 56 -2t17.5 6.5t6.5 18t-1 50.5q-2 26 -3.5 67t-3.5 89q-2 39 -1 49.5t6 16.5q6 6 15 7.5t50 1.5h28.5t16.5 -0.5t11 -2t5 -3t5 -4.5
q5 -6 5.5 -19t-2.5 -74q-2 -35 -2 -246t2 -243q4 -72 2 -81q-3 -12 -15 -17q-6 -3 -55.5 -3t-55.5 3t-10 7q-8 9 -6 47q9 159 9 177q-1 19 -12 25q-7 3 -38.5 2.5t-59.5 -1.5q-27 -2 -91.5 -2t-91.5 2q-27 1 -59 1.5t-38.5 -2.5t-9.5 -8.5t-2 -36.5q1 -67 7 -158
q3 -41 -9 -50q-6 -4 -14.5 -5t-46.5 -1h-50l-8 4q-7 4 -10 9t-3 27t2 71q2 45 2 232.5t-2 234.5q-3 74 -3 86.5t6 18.5q8 9 56 10z" />
    <glyph glyph-name="I" unicode="I" horiz-adv-x="298" 
d="M102 691q8 1 52 1q37 0 45.5 -1.5t14.5 -8.5q5 -5 6 -13t0 -32q-2 -40 -2 -60q-2 -40 -2 -233.5t2 -234.5q2 -45 2 -68.5t-3.5 -29t-10.5 -8.5l-8 -4h-49q-50 0 -54 2q-15 6 -18 23q-1 7 1.5 49t2.5 272.5t-2.5 272.5t-1.5 48q3 23 25 25z" />
    <glyph glyph-name="I" unicode="&#xcf;" horiz-adv-x="298" 
d="M102 691q8 1 52 1q37 0 45.5 -1.5t14.5 -8.5q5 -5 6 -13t0 -32q-2 -40 -2 -60q-2 -40 -2 -233.5t2 -234.5q2 -45 2 -68.5t-3.5 -29t-10.5 -8.5l-8 -4h-49q-50 0 -54 2q-15 6 -18 23q-1 7 1.5 49t2.5 272.5t-2.5 272.5t-1.5 48q3 23 25 25z" />
    <glyph glyph-name="I" unicode="&#xce;" horiz-adv-x="298" 
d="M102 691q8 1 52 1q37 0 45.5 -1.5t14.5 -8.5q5 -5 6 -13t0 -32q-2 -40 -2 -60q-2 -40 -2 -233.5t2 -234.5q2 -45 2 -68.5t-3.5 -29t-10.5 -8.5l-8 -4h-49q-50 0 -54 2q-15 6 -18 23q-1 7 1.5 49t2.5 272.5t-2.5 272.5t-1.5 48q3 23 25 25z" />
    <glyph glyph-name="I" unicode="&#xcd;" horiz-adv-x="298" 
d="M102 691q8 1 52 1q37 0 45.5 -1.5t14.5 -8.5q5 -5 6 -13t0 -32q-2 -40 -2 -60q-2 -40 -2 -233.5t2 -234.5q2 -45 2 -68.5t-3.5 -29t-10.5 -8.5l-8 -4h-49q-50 0 -54 2q-15 6 -18 23q-1 7 1.5 49t2.5 272.5t-2.5 272.5t-1.5 48q3 23 25 25z" />
    <glyph glyph-name="I" unicode="&#xcc;" horiz-adv-x="298" 
d="M102 691q8 1 52 1q37 0 45.5 -1.5t14.5 -8.5q5 -5 6 -13t0 -32q-2 -40 -2 -60q-2 -40 -2 -233.5t2 -234.5q2 -45 2 -68.5t-3.5 -29t-10.5 -8.5l-8 -4h-49q-50 0 -54 2q-15 6 -18 23q-1 7 1.5 49t2.5 272.5t-2.5 272.5t-1.5 48q3 23 25 25z" />
    <glyph glyph-name="J" unicode="J" horiz-adv-x="755" 
d="M571.5 695q7.5 1 51.5 1q26 0 36 -1t15 -2.5t9 -6.5q5 -6 6 -15t0 -35q-5 -86 -4 -274q0 -105 -6 -138q-16 -97 -80 -154q-68 -59 -191 -72q-22 -2 -61 -2t-57 2q-69 9 -123 38t-89 75t-47 105q-8 38 3 51q6 6 15.5 7.5t51.5 0.5q48 -1 54 -4q8 -4 11 -10.5t6 -22.5
q5 -23 13 -40q27 -51 105 -66q12 -2 46.5 -2.5t54.5 0.5q67 6 103.5 29t49.5 68q6 20 7 46.5t0 143.5q-1 143 -3 182q-3 70 0 78q2 10 12 15q4 2 11.5 3z" />
    <glyph glyph-name="K" unicode="K" horiz-adv-x="776" 
d="M571 692q13 1 32 1t24 -3q10 -5 10 -14q0 -8 -7.5 -16.5t-30.5 -28.5q-57 -47 -141 -124q-60 -55 -114 -100q-34 -29 -36.5 -32.5t-3 -11t5 -13t24.5 -15.5q34 -18 60.5 -41t65.5 -67q46 -53 68 -69q20 -15 43 -21q11 -3 29 -3q31 0 77 18q20 7 31 -1q9 -6 20 -33
q7 -16 15 -36q10 -22 12 -31t-2 -16q-7 -13 -43 -22q-127 -32 -215 10q-37 18 -66.5 44t-79.5 87q-68 81 -111 93q-15 5 -24 -5q-5 -5 -6 -13q-2 -13 6 -130q6 -75 2 -83q-4 -12 -17 -16q-5 -1 -53 -1h-49l-7 3q-7 4 -10.5 9t-2.5 32q0 27 1 62q4 77 3.5 248.5t-3.5 249.5
q-3 68 2 77q6 8 14 9t52 1h52l6 -3q7 -4 10 -10q5 -10 1 -56q-8 -91 -8 -125q0 -23 8 -28.5t20 2.5q6 4 43 43q36 38 99 102q51 52 63 61.5t25 11.5q9 1 50 2q42 1 56 2z" />
    <glyph glyph-name="L" unicode="L" horiz-adv-x="665" 
d="M101 690q11 1 53 0.5t47 -1.5q13 -4 17 -17q2 -10 -1 -59q-1 -23 -2 -191t-3 -201q-2 -50 -1 -62.5t8 -18.5q9 -7 52 -5q34 2 120 3q144 2 190 4q29 2 38 0.5t15 -6.5q6 -7 7.5 -17t0.5 -51q0 -47 -3.5 -53.5t-9.5 -10.5t-27 -4q-20 0 -53 2t-176 2q-148 1 -252 -3
q-22 -1 -29 2.5t-11 9.5t-4 17t2 63q2 45 1.5 264.5t-2.5 252.5q-3 56 1 65q6 13 22 15z" />
    <glyph glyph-name="M" unicode="M" horiz-adv-x="939" 
d="M776 699q62 2 71 -3q11 -5 13 -15.5t0 -44.5q-5 -85 -3 -325q1 -188 3 -217q3 -75 1 -83q-4 -14 -18 -18q-5 -2 -55 -2q-31 0 -41.5 1t-15 2.5t-9.5 6.5q-5 7 -5.5 19.5t1.5 73.5q2 32 3 80q2 63 7 172q2 63 -3 73q-3 6 -12 6t-24 -22q-38 -56 -117 -187q-22 -36 -28 -42
q-8 -9 -17 -10.5t-53 -2.5q-51 -2 -59 1q-20 6 -20 34q0 10 -2 28q-6 82 -47 168q-35 72 -80 117q-19 19 -29.5 24t-17.5 -1q-6 -5 -8 -19q-3 -14 4 -137q1 -14 2 -126.5t3 -147.5q3 -71 2.5 -82.5t-6.5 -18.5t-15 -8.5t-50 -1.5q-51 0 -56 2q-14 4 -18 18q-2 8 2 81
q1 33 2 249t-1 250q-3 68 -2.5 80.5t6.5 18.5q5 6 13 7.5t32 0.5q78 -2 134 -29q53 -25 100 -72q54 -54 89 -127q14 -29 27 -66q9 -25 14 -32.5t13 -7.5q7 0 14.5 8t24.5 36q42 66 79 122q56 86 80 124q21 35 34 41q6 3 38 4z" />
    <glyph glyph-name="N" unicode="N" horiz-adv-x="819" 
d="M648 700q68 2 77 -3q12 -6 14 -17q2 -8 -1 -88q-2 -61 -0.5 -280t3.5 -245q4 -43 1 -56t-16 -17q-8 -2 -44 -1q-52 3 -81 13q-79 27 -141 120q-38 57 -91 180q-53 121 -79 164q-51 81 -72 59q-2 -2 -4 -6q-5 -10 -2 -80q4 -87 6 -226q2 -101 3 -128q2 -44 2.5 -59
t-1.5 -19q-4 -15 -17 -19q-6 -1 -54.5 -1t-54.5 1q-14 4 -18 18q-2 7 2 94q1 37 1.5 263t-2.5 264q-2 32 -1 41.5t6 15.5q3 5 9.5 8t36.5 2q50 -2 83 -10q43 -11 80 -35q61 -40 112 -120q37 -58 101 -210q57 -136 81 -148q10 -5 16 1q8 9 6 57q0 2 -4 103q-3 73 -3 103
q-5 154 -8 208q-2 24 1 34t12 15q6 3 41 4z" />
    <glyph glyph-name="N" unicode="&#xd1;" horiz-adv-x="819" 
d="M648 700q68 2 77 -3q12 -6 14 -17q2 -8 -1 -88q-2 -61 -0.5 -280t3.5 -245q4 -43 1 -56t-16 -17q-8 -2 -44 -1q-52 3 -81 13q-79 27 -141 120q-38 57 -91 180q-53 121 -79 164q-51 81 -72 59q-2 -2 -4 -6q-5 -10 -2 -80q4 -87 6 -226q2 -101 3 -128q2 -44 2.5 -59
t-1.5 -19q-4 -15 -17 -19q-6 -1 -54.5 -1t-54.5 1q-14 4 -18 18q-2 7 2 94q1 37 1.5 263t-2.5 264q-2 32 -1 41.5t6 15.5q3 5 9.5 8t36.5 2q50 -2 83 -10q43 -11 80 -35q61 -40 112 -120q37 -58 101 -210q57 -136 81 -148q10 -5 16 1q8 9 6 57q0 2 -4 103q-3 73 -3 103
q-5 154 -8 208q-2 24 1 34t12 15q6 3 41 4z" />
    <glyph glyph-name="O" unicode="O" 
d="M407 704q15 1 47.5 1.5t47.5 -1.5q165 -16 272 -126q75 -77 94 -182q3 -15 3 -50t-3 -50q-9 -49 -30 -92q-21 -45 -56 -82.5t-78 -65.5t-95 -46t-108 -23q-20 -2 -56.5 -1t-53.5 4q-105 16 -183 68q-88 59 -131 146q-33 67 -33 142q0 54 17 104q13 36 33 69
q49 76 131 125t182 60zM501 567q-100 12 -186 -29q-52 -25 -86.5 -66t-44.5 -90q-8 -36 0 -73q10 -49 44.5 -89.5t88.5 -66.5q65 -31 141 -31t142 32q54 25 88.5 67t44.5 92q2 12 2 33q0 45 -21 86q-28 54 -85 90t-128 45z" />
    <glyph glyph-name="O" unicode="&#xd8;" 
d="M407 704q15 1 47.5 1.5t47.5 -1.5q165 -16 272 -126q75 -77 94 -182q3 -15 3 -50t-3 -50q-9 -49 -30 -92q-21 -45 -56 -82.5t-78 -65.5t-95 -46t-108 -23q-20 -2 -56.5 -1t-53.5 4q-105 16 -183 68q-88 59 -131 146q-33 67 -33 142q0 54 17 104q13 36 33 69
q49 76 131 125t182 60zM501 567q-100 12 -186 -29q-52 -25 -86.5 -66t-44.5 -90q-8 -36 0 -73q10 -49 44.5 -89.5t88.5 -66.5q65 -31 141 -31t142 32q54 25 88.5 67t44.5 92q2 12 2 33q0 45 -21 86q-28 54 -85 90t-128 45z" />
    <glyph glyph-name="O" unicode="&#xd6;" 
d="M407 704q15 1 47.5 1.5t47.5 -1.5q165 -16 272 -126q75 -77 94 -182q3 -15 3 -50t-3 -50q-9 -49 -30 -92q-21 -45 -56 -82.5t-78 -65.5t-95 -46t-108 -23q-20 -2 -56.5 -1t-53.5 4q-105 16 -183 68q-88 59 -131 146q-33 67 -33 142q0 54 17 104q13 36 33 69
q49 76 131 125t182 60zM501 567q-100 12 -186 -29q-52 -25 -86.5 -66t-44.5 -90q-8 -36 0 -73q10 -49 44.5 -89.5t88.5 -66.5q65 -31 141 -31t142 32q54 25 88.5 67t44.5 92q2 12 2 33q0 45 -21 86q-28 54 -85 90t-128 45z" />
    <glyph glyph-name="O" unicode="&#xd5;" 
d="M407 704q15 1 47.5 1.5t47.5 -1.5q165 -16 272 -126q75 -77 94 -182q3 -15 3 -50t-3 -50q-9 -49 -30 -92q-21 -45 -56 -82.5t-78 -65.5t-95 -46t-108 -23q-20 -2 -56.5 -1t-53.5 4q-105 16 -183 68q-88 59 -131 146q-33 67 -33 142q0 54 17 104q13 36 33 69
q49 76 131 125t182 60zM501 567q-100 12 -186 -29q-52 -25 -86.5 -66t-44.5 -90q-8 -36 0 -73q10 -49 44.5 -89.5t88.5 -66.5q65 -31 141 -31t142 32q54 25 88.5 67t44.5 92q2 12 2 33q0 45 -21 86q-28 54 -85 90t-128 45z" />
    <glyph glyph-name="O" unicode="&#xd4;" 
d="M407 704q15 1 47.5 1.5t47.5 -1.5q165 -16 272 -126q75 -77 94 -182q3 -15 3 -50t-3 -50q-9 -49 -30 -92q-21 -45 -56 -82.5t-78 -65.5t-95 -46t-108 -23q-20 -2 -56.5 -1t-53.5 4q-105 16 -183 68q-88 59 -131 146q-33 67 -33 142q0 54 17 104q13 36 33 69
q49 76 131 125t182 60zM501 567q-100 12 -186 -29q-52 -25 -86.5 -66t-44.5 -90q-8 -36 0 -73q10 -49 44.5 -89.5t88.5 -66.5q65 -31 141 -31t142 32q54 25 88.5 67t44.5 92q2 12 2 33q0 45 -21 86q-28 54 -85 90t-128 45z" />
    <glyph glyph-name="O" unicode="&#xd3;" 
d="M407 704q15 1 47.5 1.5t47.5 -1.5q165 -16 272 -126q75 -77 94 -182q3 -15 3 -50t-3 -50q-9 -49 -30 -92q-21 -45 -56 -82.5t-78 -65.5t-95 -46t-108 -23q-20 -2 -56.5 -1t-53.5 4q-105 16 -183 68q-88 59 -131 146q-33 67 -33 142q0 54 17 104q13 36 33 69
q49 76 131 125t182 60zM501 567q-100 12 -186 -29q-52 -25 -86.5 -66t-44.5 -90q-8 -36 0 -73q10 -49 44.5 -89.5t88.5 -66.5q65 -31 141 -31t142 32q54 25 88.5 67t44.5 92q2 12 2 33q0 45 -21 86q-28 54 -85 90t-128 45z" />
    <glyph glyph-name="O" unicode="&#xd2;" 
d="M407 704q15 1 47.5 1.5t47.5 -1.5q165 -16 272 -126q75 -77 94 -182q3 -15 3 -50t-3 -50q-9 -49 -30 -92q-21 -45 -56 -82.5t-78 -65.5t-95 -46t-108 -23q-20 -2 -56.5 -1t-53.5 4q-105 16 -183 68q-88 59 -131 146q-33 67 -33 142q0 54 17 104q13 36 33 69
q49 76 131 125t182 60zM501 567q-100 12 -186 -29q-52 -25 -86.5 -66t-44.5 -90q-8 -36 0 -73q10 -49 44.5 -89.5t88.5 -66.5q65 -31 141 -31t142 32q54 25 88.5 67t44.5 92q2 12 2 33q0 45 -21 86q-28 54 -85 90t-128 45z" />
    <glyph glyph-name="P" unicode="P" horiz-adv-x="770" 
d="M94 697q9 4 52 1q22 -2 169 -3t169 -4q65 -9 111 -27q70 -28 106 -76q17 -22 25 -47q12 -34 9.5 -73.5t-18.5 -72.5q-58 -115 -267 -128q-47 -2 -139 2q-35 2 -58 2q-19 0 -25 -2t-11 -9q-5 -8 -3 -47q6 -106 8 -173q1 -25 -2 -31q-5 -12 -19 -16q-6 -1 -55 -1l-50 1
l-6 3q-11 6 -13 16t0 45.5t3 81.5t1 231.5t-1 219t-2 60.5t1 33q4 11 15 14zM290 562q-49 2 -59 0q-13 -3 -17 -16q-1 -6 -2 -66q0 -68 8 -76q7 -5 16.5 -6t40.5 0q38 2 108 3q91 2 129 10q65 13 81 46q13 26 -4 50t-58 37q-52 16 -171 17q-41 0 -72 1z" />
    <glyph glyph-name="Q" unicode="Q" 
d="M420 711q46 4 94 -2q62 -8 113 -28q122 -49 189 -149q50 -75 55 -162.5t-35 -164.5q-42 -79 -127 -131q-18 -11 -23.5 -16t-6.5 -10q-5 -18 35 -38q39 -19 81 -23q17 -2 20 -3q18 -4 22 -20q1 -6 2 -55v-49l-3 -6q-10 -17 -46 -11q-63 11 -121 41.5t-100 74.5
q-28 30 -35.5 35t-23.5 4q-14 -1 -30 -3q-50 -5 -103 4q-139 23 -231 116q-82 81 -99 190q-3 15 -3 45.5t2 43.5q14 86 64 154q52 70 133 112.5t177 50.5zM507 572q-42 6 -81 2q-76 -8 -133 -42q-30 -18 -53 -41.5t-37.5 -51t-20.5 -56.5q-5 -31 0 -62q16 -88 103 -145
q35 -24 83 -39.5t62 -7.5q14 7 2 31q-17 32 -19 40q-1 7 1 13q4 8 12 12t48 18q42 15 52 12q8 -2 13 -10t14 -34q13 -37 21 -47q4 -5 10.5 -8t13.5 -1q13 2 39 21q77 57 95 138q7 33 1 66q-4 28 -17 55q-27 53 -83 90t-126 47z" />
    <glyph glyph-name="R" unicode="R" horiz-adv-x="786" 
d="M91 708q6 3 15 3t78 -2q34 -2 146 -2q124 0 168 -6q109 -16 173 -69q30 -25 48 -61q21 -44 16 -97t-34 -92q-19 -26 -44 -43q-55 -36 -146 -46q-29 -3 -36 -10q-8 -8 -2 -21q3 -6 20.5 -29.5t29.5 -37.5q44 -50 99 -62q18 -4 51 -6q18 -1 25 -3.5t11 -10.5q4 -7 5 -55
t-1 -55q-4 -21 -26 -23q-15 -1 -52 6t-64 16q-57 19 -97.5 53t-79.5 93q-36 55 -49 72.5t-30 29.5q-35 27 -73 32q-15 1 -23 -7q-8 -7 -7 -30q0 -40 10 -187q1 -22 -0.5 -31t-8 -15t-17 -7t-52.5 -1q-30 0 -39 1t-13.5 2.5t-9.5 6.5q-5 7 -5.5 18t1.5 54q3 68 3.5 269
t-2.5 269q-2 35 -2 51q0 17 3.5 23.5t10.5 9.5zM292 575q-53 1 -57 0q-1 0 -5 -1t-9 -5q-6 -6 -7.5 -17t-1.5 -62q0 -60 3 -67q6 -11 18 -13q5 -1 69 0q63 2 93 2q156 0 193 46q18 21 12 44q-15 57 -145 68q-16 2 -70 2q-54 1 -93 3z" />
    <glyph glyph-name="S" unicode="S" horiz-adv-x="787" 
d="M356 711q74 5 154 -8.5t148 -43.5q36 -16 47.5 -24.5t11.5 -21.5q0 -10 -21 -40q-19 -26 -26 -35q-14 -20 -23 -24q-8 -3 -15 -1.5t-27 12.5q-50 26 -102 38q-58 14 -120 16q-131 4 -167 -50q-11 -18 -11 -37q0 -14 3 -22q11 -24 43 -36q31 -12 116 -19q65 -5 114.5 -13
t88.5 -19t67 -25.5t48 -33.5q54 -50 54 -128q1 -30 -8 -56q-25 -75 -114 -118t-217 -43q-63 0 -120 11q-62 11 -118.5 35.5t-92.5 54.5q-26 23 -14 42q7 11 69 60q14 11 24 11t24 -10q56 -43 134 -59q77 -16 156.5 -7t119.5 39q14 11 20 26q13 31 -23 55q-9 6 -19.5 10.5
t-24.5 8.5t-34 7.5t-45 6.5t-60 7q-95 10 -140.5 18t-80.5 20q-60 21 -91.5 61t-31.5 95q0 44 20 85q15 31 43 59q24 24 57 43q76 44 184 53z" />
    <glyph glyph-name="T" unicode="T" horiz-adv-x="720" 
d="M46 702q6 1 56 -2q65 -3 237 -3.5t276 2.5l59 2l8 -4q8 -4 12 -12l4 -8l1 -48q0 -41 -1 -50.5t-7.5 -15.5t-16.5 -7t-48 1q-133 7 -167 7q-16 0 -22 -0.5t-9 -2.5t-7 -8q-5 -8 -2 -65q2 -47 3 -219t3 -199q3 -55 -1 -64q-4 -10 -15 -14q-6 -3 -55.5 -3t-56.5 3
q-13 5 -16 20q-3 12 2 86q1 13 2 185.5t3 212.5q3 40 1 50t-12 15q-7 4 -20 4q-21 0 -164 -8q-37 -2 -46.5 -1t-16.5 8q-7 6 -8 16.5t-1 52.5q1 48 3 53q7 13 22 16z" />
    <glyph glyph-name="U" unicode="U" horiz-adv-x="821" 
d="M85 701q5 2 54.5 2t54.5 -2q15 -4 18 -18q2 -6 -1 -96q-1 -38 -2 -195q-1 -127 0 -149t6 -38q17 -43 73 -63q51 -19 140 -16q83 2 128 25q14 7 26 19q25 25 30 62q1 12 0 188.5t-3 213.5q-2 32 -1 42.5t6 16.5q7 7 14.5 8t51.5 1h54l6 -3q7 -4 10.5 -10.5t3 -27.5
t-1.5 -52q-2 -31 -3 -204q0 -142 -1 -170t-7 -53q-39 -148 -215 -183q-58 -12 -126 -10.5t-122 14.5q-72 17 -118 55q-71 59 -86 154q-2 16 -2 186q-1 172 -2 202q-4 74 -1 83q3 13 16 18z" />
    <glyph glyph-name="U" unicode="&#xdc;" horiz-adv-x="821" 
d="M85 701q5 2 54.5 2t54.5 -2q15 -4 18 -18q2 -6 -1 -96q-1 -38 -2 -195q-1 -127 0 -149t6 -38q17 -43 73 -63q51 -19 140 -16q83 2 128 25q14 7 26 19q25 25 30 62q1 12 0 188.5t-3 213.5q-2 32 -1 42.5t6 16.5q7 7 14.5 8t51.5 1h54l6 -3q7 -4 10.5 -10.5t3 -27.5
t-1.5 -52q-2 -31 -3 -204q0 -142 -1 -170t-7 -53q-39 -148 -215 -183q-58 -12 -126 -10.5t-122 14.5q-72 17 -118 55q-71 59 -86 154q-2 16 -2 186q-1 172 -2 202q-4 74 -1 83q3 13 16 18z" />
    <glyph glyph-name="U" unicode="&#xdb;" horiz-adv-x="821" 
d="M85 701q5 2 54.5 2t54.5 -2q15 -4 18 -18q2 -6 -1 -96q-1 -38 -2 -195q-1 -127 0 -149t6 -38q17 -43 73 -63q51 -19 140 -16q83 2 128 25q14 7 26 19q25 25 30 62q1 12 0 188.5t-3 213.5q-2 32 -1 42.5t6 16.5q7 7 14.5 8t51.5 1h54l6 -3q7 -4 10.5 -10.5t3 -27.5
t-1.5 -52q-2 -31 -3 -204q0 -142 -1 -170t-7 -53q-39 -148 -215 -183q-58 -12 -126 -10.5t-122 14.5q-72 17 -118 55q-71 59 -86 154q-2 16 -2 186q-1 172 -2 202q-4 74 -1 83q3 13 16 18z" />
    <glyph glyph-name="U" unicode="&#xda;" horiz-adv-x="821" 
d="M85 701q5 2 54.5 2t54.5 -2q15 -4 18 -18q2 -6 -1 -96q-1 -38 -2 -195q-1 -127 0 -149t6 -38q17 -43 73 -63q51 -19 140 -16q83 2 128 25q14 7 26 19q25 25 30 62q1 12 0 188.5t-3 213.5q-2 32 -1 42.5t6 16.5q7 7 14.5 8t51.5 1h54l6 -3q7 -4 10.5 -10.5t3 -27.5
t-1.5 -52q-2 -31 -3 -204q0 -142 -1 -170t-7 -53q-39 -148 -215 -183q-58 -12 -126 -10.5t-122 14.5q-72 17 -118 55q-71 59 -86 154q-2 16 -2 186q-1 172 -2 202q-4 74 -1 83q3 13 16 18z" />
    <glyph glyph-name="U" unicode="&#xd9;" horiz-adv-x="821" 
d="M85 701q5 2 54.5 2t54.5 -2q15 -4 18 -18q2 -6 -1 -96q-1 -38 -2 -195q-1 -127 0 -149t6 -38q17 -43 73 -63q51 -19 140 -16q83 2 128 25q14 7 26 19q25 25 30 62q1 12 0 188.5t-3 213.5q-2 32 -1 42.5t6 16.5q7 7 14.5 8t51.5 1h54l6 -3q7 -4 10.5 -10.5t3 -27.5
t-1.5 -52q-2 -31 -3 -204q0 -142 -1 -170t-7 -53q-39 -148 -215 -183q-58 -12 -126 -10.5t-122 14.5q-72 17 -118 55q-71 59 -86 154q-2 16 -2 186q-1 172 -2 202q-4 74 -1 83q3 13 16 18z" />
    <glyph glyph-name="V" unicode="V" horiz-adv-x="784" 
d="M35 698q5 1 48 1q54 -1 65.5 -2.5t19.5 -9.5q7 -7 23 -46q28 -70 77 -181q36 -80 66 -157t36.5 -91.5t12.5 -20.5q9 -8 19 1q8 7 33 73q39 100 83 199q52 117 73 171q14 37 19 45.5t15 13.5l7 3l53 2q64 1 71 -4q11 -6 10 -20q-1 -8 -26 -57q-36 -71 -116 -252
q-51 -114 -73 -165q-41 -89 -63 -145q-15 -38 -21 -48t-17 -14q-5 -2 -57 -2t-58 2q-10 2 -16.5 11t-16.5 36q-23 60 -64 149q-24 54 -72 161q-81 184 -118 257q-29 59 -30 67q-1 19 17 23z" />
    <glyph glyph-name="W" unicode="W" horiz-adv-x="962" 
d="M46 698q7 2 55 1q39 0 50 -1.5t17 -6.5q9 -8 16 -44q11 -56 33 -153q15 -67 33 -157q16 -79 24 -87q9 -9 18 0q6 5 12.5 22.5t44.5 120.5q37 102 50 139q11 35 29 40q6 1 53 1q40 0 50 -1t16 -8q7 -8 23 -53q15 -44 50 -140.5t40 -106.5q7 -15 16.5 -17.5t15.5 9.5
q5 10 19 82q18 88 37 173q14 63 24 111t12.5 55t7.5 12q7 7 17.5 8.5t54.5 1.5q52 1 57 -2q16 -8 12 -29q-1 -8 -8 -31q-22 -70 -60 -224q-25 -98 -31 -123q-40 -153 -56 -236q-6 -30 -9 -39t-8 -15q-4 -4 -10 -5.5t-17.5 -2t-40.5 -0.5q-40 0 -48.5 1.5t-16.5 8.5
q-7 7 -24 55q-14 40 -36 98q-21 57 -40 108q-22 63 -28.5 77t-13.5 17q-14 6 -24 -17q-4 -9 -19 -51q-23 -62 -56 -151q-22 -59 -33 -89q-15 -44 -25 -51q-7 -4 -18 -5t-47 -1q-27 0 -38 0.5t-16 2t-9 5.5q-9 9 -17 52q-14 74 -51 217q-14 57 -40 160q-34 133 -53 197
q-15 50 -10 61q4 8 16 11z" />
    <glyph glyph-name="X" unicode="X" horiz-adv-x="874" 
d="M35 701q7 2 72 -1q28 -1 50 -1q26 0 37.5 -5.5t28.5 -25.5q20 -24 86 -98q53 -60 89 -105q14 -17 21.5 -24t14 -9t12.5 2q9 4 39 42q22 27 41 49q20 23 77 87q18 21 40 47q19 22 27.5 29t19.5 9q9 1 47.5 2t62.5 3q45 3 52 -10q6 -9 -1 -21q-4 -7 -45 -47
q-62 -62 -134 -140q-42 -46 -89 -93q-47 -48 -49 -53q-5 -11 0 -22q3 -6 39.5 -42t90 -93.5t103.5 -106.5q23 -24 37 -38.5t15 -16.5q6 -13 0 -21q-5 -6 -16.5 -8t-38.5 0q-20 1 -65 2q-44 1 -52 5t-15 10.5t-31 34.5l-39 45q-45 52 -78 93q-24 29 -31 35q-16 15 -33 0
q-6 -6 -33 -39t-48 -57q-4 -5 -25.5 -29.5t-32.5 -37.5q-38 -44 -42.5 -48t-12 -7.5t-52.5 -4.5t-64 -2q-28 -2 -39 -0.5t-16 8.5q-7 10 1 23q4 6 46 48q55 54 98 100q62 66 102 107q34 34 37 39q6 12 1 23q-2 5 -49 53q-47 47 -89 93q-72 78 -136 141q-18 18 -29.5 30.5
t-13.5 15.5q-6 11 -2.5 19t14.5 11z" />
    <glyph glyph-name="Y" unicode="Y" horiz-adv-x="819" 
d="M31 708q6 1 20 0t61 -2q37 -1 47.5 -2.5t18.5 -6.5q7 -5 37 -49q18 -26 58 -81q51 -71 88 -126q31 -45 35 -48q15 -11 29 2q4 5 29 41q40 60 71 102q53 74 81 115q23 33 27 37q9 10 21 13q2 1 25.5 2t52 2t44.5 1q24 0 29 -13q2 -4 1.5 -8.5t-4.5 -11t-10.5 -15
t-17.5 -21.5q-44 -51 -138 -178q-73 -98 -133 -176q-26 -33 -28 -50q-2 -28 5 -175q3 -50 0 -58q-4 -11 -15 -16q-6 -3 -56 -3q-40 0 -49 1t-15 6q-6 6 -8 19q-1 6 1 51q5 97 5 160q1 21 -4.5 32t-33.5 47q-38 49 -82 108q-131 175 -193 249q-18 21 -18 32q0 16 19 20z" />
    <glyph glyph-name="Y" unicode="&#x178;" horiz-adv-x="819" 
d="M31 708q6 1 20 0t61 -2q37 -1 47.5 -2.5t18.5 -6.5q7 -5 37 -49q18 -26 58 -81q51 -71 88 -126q31 -45 35 -48q15 -11 29 2q4 5 29 41q40 60 71 102q53 74 81 115q23 33 27 37q9 10 21 13q2 1 25.5 2t52 2t44.5 1q24 0 29 -13q2 -4 1.5 -8.5t-4.5 -11t-10.5 -15
t-17.5 -21.5q-44 -51 -138 -178q-73 -98 -133 -176q-26 -33 -28 -50q-2 -28 5 -175q3 -50 0 -58q-4 -11 -15 -16q-6 -3 -56 -3q-40 0 -49 1t-15 6q-6 6 -8 19q-1 6 1 51q5 97 5 160q1 21 -4.5 32t-33.5 47q-38 49 -82 108q-131 175 -193 249q-18 21 -18 32q0 16 19 20z" />
    <glyph glyph-name="Y" unicode="&#xdd;" horiz-adv-x="819" 
d="M31 708q6 1 20 0t61 -2q37 -1 47.5 -2.5t18.5 -6.5q7 -5 37 -49q18 -26 58 -81q51 -71 88 -126q31 -45 35 -48q15 -11 29 2q4 5 29 41q40 60 71 102q53 74 81 115q23 33 27 37q9 10 21 13q2 1 25.5 2t52 2t44.5 1q24 0 29 -13q2 -4 1.5 -8.5t-4.5 -11t-10.5 -15
t-17.5 -21.5q-44 -51 -138 -178q-73 -98 -133 -176q-26 -33 -28 -50q-2 -28 5 -175q3 -50 0 -58q-4 -11 -15 -16q-6 -3 -56 -3q-40 0 -49 1t-15 6q-6 6 -8 19q-1 6 1 51q5 97 5 160q1 21 -4.5 32t-33.5 47q-38 49 -82 108q-131 175 -193 249q-18 21 -18 32q0 16 19 20z" />
    <glyph glyph-name="Z" unicode="Z" horiz-adv-x="733" 
d="M68 706q6 2 88 -2q39 -2 229 -2t220 2q31 1 36 2q6 1 15 -0.5t14.5 -7t6.5 -10.5q4 -12 1 -70q-2 -23 -6 -31.5t-22 -28.5q-54 -56 -132 -146q-99 -113 -199 -216q-45 -46 -48 -55q-8 -17 9 -21q11 -3 73 0q67 3 170 6q65 1 102 3t40 1q2 0 7 -1q12 -2 18 -16q3 -5 3 -56
v-50l-4 -8q-4 -7 -11 -10.5t-24.5 -3.5t-41.5 1.5t-205 3.5q-234 2 -302 -3q-38 -3 -49 0q-13 4 -17 17q-1 6 -1 30.5t2 33.5q2 12 8.5 21.5t30.5 33.5q46 48 125 138q123 140 205 224q45 47 54 59t5 20q-3 8 -17.5 9t-67.5 -1q-66 -3 -186 -6q-35 -1 -75 -3q-50 -3 -58 1
q-10 5 -14 17q-2 7 -1.5 56t3.5 55q5 10 16 14z" />
    <glyph glyph-name="underscore" unicode="_" horiz-adv-x="626" 
d="M54 72q0 55 1 69q2 6 9 7q1 0 110 -1t207.5 -2t133.5 1q39 3 47 2q8 -2 9 -13q1 -8 1 -49v-21q0 -58 -2 -64l-2 -2q-1 -1 -1 -2q-4 -2 -33 0l-62 3q-19 1 -84 0.5t-129.5 -1t-121.5 -1.5t-59 -1q-18 0 -20 1l-1 1q-1 2 -1 3l-2 6v64z" />
    <glyph glyph-name="a" unicode="a" horiz-adv-x="828" 
d="M351 688q7 3 63 3h35.5t19.5 -1t11.5 -2.5t6.5 -4.5q7 -6 21 -36q20 -47 51 -111q56 -117 80 -166q89 -191 149 -298q16 -29 19 -36t3 -15q1 -12 -10 -18q-4 -2 -54 -2t-59 1q-23 2 -33 23q-4 8 -20 47q-13 31 -18 42.5t-9 16.5t-11 8q-8 3 -93 1q-90 -3 -178 0
q-41 1 -64 1q-22 1 -30 -3q-9 -4 -14 -13t-23 -54q-18 -44 -21 -50q-8 -13 -20 -17q-4 -1 -56.5 -2.5t-59.5 -0.5q-12 1 -17 10q-8 12 12 46q59 103 143 283q49 102 93 194q30 61 49 105q13 30 18.5 38t15.5 11zM421 520q-12 6 -22 -9q-4 -5 -26 -54t-43 -92
q-30 -59 -34 -67t-4 -14q0 -11 9 -16q6 -3 35 -2h76.5h78.5q24 -1 31 0.5t11 7.5q7 8 -8 37q-47 94 -66 138q-20 45 -26.5 56.5t-11.5 14.5z" />
    <glyph glyph-name="a" unicode="&#xe5;" horiz-adv-x="828" 
d="M351 688q7 3 63 3h35.5t19.5 -1t11.5 -2.5t6.5 -4.5q7 -6 21 -36q20 -47 51 -111q56 -117 80 -166q89 -191 149 -298q16 -29 19 -36t3 -15q1 -12 -10 -18q-4 -2 -54 -2t-59 1q-23 2 -33 23q-4 8 -20 47q-13 31 -18 42.5t-9 16.5t-11 8q-8 3 -93 1q-90 -3 -178 0
q-41 1 -64 1q-22 1 -30 -3q-9 -4 -14 -13t-23 -54q-18 -44 -21 -50q-8 -13 -20 -17q-4 -1 -56.5 -2.5t-59.5 -0.5q-12 1 -17 10q-8 12 12 46q59 103 143 283q49 102 93 194q30 61 49 105q13 30 18.5 38t15.5 11zM421 520q-12 6 -22 -9q-4 -5 -26 -54t-43 -92
q-30 -59 -34 -67t-4 -14q0 -11 9 -16q6 -3 35 -2h76.5h78.5q24 -1 31 0.5t11 7.5q7 8 -8 37q-47 94 -66 138q-20 45 -26.5 56.5t-11.5 14.5z" />
    <glyph glyph-name="a" unicode="&#xe4;" horiz-adv-x="828" 
d="M351 688q7 3 63 3h35.5t19.5 -1t11.5 -2.5t6.5 -4.5q7 -6 21 -36q20 -47 51 -111q56 -117 80 -166q89 -191 149 -298q16 -29 19 -36t3 -15q1 -12 -10 -18q-4 -2 -54 -2t-59 1q-23 2 -33 23q-4 8 -20 47q-13 31 -18 42.5t-9 16.5t-11 8q-8 3 -93 1q-90 -3 -178 0
q-41 1 -64 1q-22 1 -30 -3q-9 -4 -14 -13t-23 -54q-18 -44 -21 -50q-8 -13 -20 -17q-4 -1 -56.5 -2.5t-59.5 -0.5q-12 1 -17 10q-8 12 12 46q59 103 143 283q49 102 93 194q30 61 49 105q13 30 18.5 38t15.5 11zM421 520q-12 6 -22 -9q-4 -5 -26 -54t-43 -92
q-30 -59 -34 -67t-4 -14q0 -11 9 -16q6 -3 35 -2h76.5h78.5q24 -1 31 0.5t11 7.5q7 8 -8 37q-47 94 -66 138q-20 45 -26.5 56.5t-11.5 14.5z" />
    <glyph glyph-name="a" unicode="&#xe3;" horiz-adv-x="828" 
d="M351 688q7 3 63 3h35.5t19.5 -1t11.5 -2.5t6.5 -4.5q7 -6 21 -36q20 -47 51 -111q56 -117 80 -166q89 -191 149 -298q16 -29 19 -36t3 -15q1 -12 -10 -18q-4 -2 -54 -2t-59 1q-23 2 -33 23q-4 8 -20 47q-13 31 -18 42.5t-9 16.5t-11 8q-8 3 -93 1q-90 -3 -178 0
q-41 1 -64 1q-22 1 -30 -3q-9 -4 -14 -13t-23 -54q-18 -44 -21 -50q-8 -13 -20 -17q-4 -1 -56.5 -2.5t-59.5 -0.5q-12 1 -17 10q-8 12 12 46q59 103 143 283q49 102 93 194q30 61 49 105q13 30 18.5 38t15.5 11zM421 520q-12 6 -22 -9q-4 -5 -26 -54t-43 -92
q-30 -59 -34 -67t-4 -14q0 -11 9 -16q6 -3 35 -2h76.5h78.5q24 -1 31 0.5t11 7.5q7 8 -8 37q-47 94 -66 138q-20 45 -26.5 56.5t-11.5 14.5z" />
    <glyph glyph-name="a" unicode="&#xe2;" horiz-adv-x="828" 
d="M351 688q7 3 63 3h35.5t19.5 -1t11.5 -2.5t6.5 -4.5q7 -6 21 -36q20 -47 51 -111q56 -117 80 -166q89 -191 149 -298q16 -29 19 -36t3 -15q1 -12 -10 -18q-4 -2 -54 -2t-59 1q-23 2 -33 23q-4 8 -20 47q-13 31 -18 42.5t-9 16.5t-11 8q-8 3 -93 1q-90 -3 -178 0
q-41 1 -64 1q-22 1 -30 -3q-9 -4 -14 -13t-23 -54q-18 -44 -21 -50q-8 -13 -20 -17q-4 -1 -56.5 -2.5t-59.5 -0.5q-12 1 -17 10q-8 12 12 46q59 103 143 283q49 102 93 194q30 61 49 105q13 30 18.5 38t15.5 11zM421 520q-12 6 -22 -9q-4 -5 -26 -54t-43 -92
q-30 -59 -34 -67t-4 -14q0 -11 9 -16q6 -3 35 -2h76.5h78.5q24 -1 31 0.5t11 7.5q7 8 -8 37q-47 94 -66 138q-20 45 -26.5 56.5t-11.5 14.5z" />
    <glyph glyph-name="a" unicode="&#xe1;" horiz-adv-x="828" 
d="M351 688q7 3 63 3h35.5t19.5 -1t11.5 -2.5t6.5 -4.5q7 -6 21 -36q20 -47 51 -111q56 -117 80 -166q89 -191 149 -298q16 -29 19 -36t3 -15q1 -12 -10 -18q-4 -2 -54 -2t-59 1q-23 2 -33 23q-4 8 -20 47q-13 31 -18 42.5t-9 16.5t-11 8q-8 3 -93 1q-90 -3 -178 0
q-41 1 -64 1q-22 1 -30 -3q-9 -4 -14 -13t-23 -54q-18 -44 -21 -50q-8 -13 -20 -17q-4 -1 -56.5 -2.5t-59.5 -0.5q-12 1 -17 10q-8 12 12 46q59 103 143 283q49 102 93 194q30 61 49 105q13 30 18.5 38t15.5 11zM421 520q-12 6 -22 -9q-4 -5 -26 -54t-43 -92
q-30 -59 -34 -67t-4 -14q0 -11 9 -16q6 -3 35 -2h76.5h78.5q24 -1 31 0.5t11 7.5q7 8 -8 37q-47 94 -66 138q-20 45 -26.5 56.5t-11.5 14.5z" />
    <glyph glyph-name="a" unicode="&#xe0;" horiz-adv-x="828" 
d="M351 688q7 3 63 3h35.5t19.5 -1t11.5 -2.5t6.5 -4.5q7 -6 21 -36q20 -47 51 -111q56 -117 80 -166q89 -191 149 -298q16 -29 19 -36t3 -15q1 -12 -10 -18q-4 -2 -54 -2t-59 1q-23 2 -33 23q-4 8 -20 47q-13 31 -18 42.5t-9 16.5t-11 8q-8 3 -93 1q-90 -3 -178 0
q-41 1 -64 1q-22 1 -30 -3q-9 -4 -14 -13t-23 -54q-18 -44 -21 -50q-8 -13 -20 -17q-4 -1 -56.5 -2.5t-59.5 -0.5q-12 1 -17 10q-8 12 12 46q59 103 143 283q49 102 93 194q30 61 49 105q13 30 18.5 38t15.5 11zM421 520q-12 6 -22 -9q-4 -5 -26 -54t-43 -92
q-30 -59 -34 -67t-4 -14q0 -11 9 -16q6 -3 35 -2h76.5h78.5q24 -1 31 0.5t11 7.5q7 8 -8 37q-47 94 -66 138q-20 45 -26.5 56.5t-11.5 14.5z" />
    <glyph glyph-name="b" unicode="b" horiz-adv-x="794" 
d="M94 689q6 2 80 -1q34 -1 178 -1t155 -2q64 -8 109.5 -36t67.5 -72q25 -50 19 -104q-4 -31 -21 -65q-13 -25 -13 -29q0 -9 20 -30q22 -23 34 -44q19 -36 21 -85t-14 -87q-22 -55 -76 -88t-132 -39q-18 -2 -173 -2t-188 -1q-62 -3 -71 1q-10 5 -12 16t0 48.5t3 235.5
q0 261 -4 334q-3 35 7 45q5 5 10 6zM386 557q-116 1 -133 1q-30 2 -39 -9q-6 -7 -6 -61v-46l3 -7q4 -6 10 -10q6 -3 17.5 -3t63.5 2q47 1 120 1q38 -1 60 -0.5t31 1.5t18 5q43 16 43 57q0 26 -19 44q-9 9 -23 15q-16 6 -33.5 7.5t-112.5 2.5zM297 298q-31 1 -48 2
q-30 1 -37 -13q-3 -5 -3.5 -65t1.5 -68q3 -15 17 -19q8 -2 49.5 -0.5t143 2t116.5 3.5q78 14 78 73q0 61 -69 78q-13 3 -22 4t-37 1.5t-79 -0.5q-76 0 -110 2z" />
    <glyph glyph-name="c" unicode="c" horiz-adv-x="816" 
d="M433 694q54 3 103 -4q111 -14 207 -74q39 -23 34 -42q-2 -7 -7 -13.5t-27 -30.5q-14 -15 -24 -26q-16 -18 -29 -18q-11 0 -30 15q-28 21 -61 35q-51 22 -115 25t-123 -14q-57 -17 -101 -50t-66 -76q-37 -75 0 -150q15 -30 44 -57q66 -64 173 -80q47 -7 97 -1q57 6 102 28
q22 11 44 26q20 14 29 14q14 0 35 -25q8 -11 25 -30q25 -28 25 -39t-7 -18.5t-25 -18.5q-103 -61 -225 -71.5t-229 32.5q-71 29 -125 76.5t-84 108.5q-32 66 -30 140q4 108 82 197q54 60 136.5 98t171.5 43z" />
    <glyph glyph-name="c" unicode="&#xe7;" horiz-adv-x="816" 
d="M433 694q54 3 103 -4q111 -14 207 -74q39 -23 34 -42q-2 -7 -7 -13.5t-27 -30.5q-14 -15 -24 -26q-16 -18 -29 -18q-11 0 -30 15q-28 21 -61 35q-51 22 -115 25t-123 -14q-57 -17 -101 -50t-66 -76q-37 -75 0 -150q15 -30 44 -57q66 -64 173 -80q47 -7 97 -1q57 6 102 28
q22 11 44 26q20 14 29 14q14 0 35 -25q8 -11 25 -30q25 -28 25 -39t-7 -18.5t-25 -18.5q-103 -61 -225 -71.5t-229 32.5q-71 29 -125 76.5t-84 108.5q-32 66 -30 140q4 108 82 197q54 60 136.5 98t171.5 43z" />
    <glyph glyph-name="d" unicode="d" horiz-adv-x="797" 
d="M102 689q10 1 27 0q84 -5 179 -3q81 1 122 -4q138 -18 222 -100q25 -24 44 -52q34 -51 47 -112q10 -53 5 -113t-24 -107q-9 -21 -21 -41q-69 -115 -235 -143q-32 -5 -56.5 -6.5t-125.5 -1.5q-127 -1 -154 -3q-25 -2 -33.5 -0.5t-14.5 7.5q-10 9 -7 43q2 26 2.5 269.5
t-1.5 284.5q-3 60 1 69q6 12 23 13zM334 554q-46 1 -77 2q-26 1 -31 -1q-10 -4 -14 -15q-3 -6 -1 -55q4 -124 1 -225q-2 -67 -2 -87.5t4 -26.5q6 -11 26 -11q19 0 136 4q136 5 192 60q36 36 46 97q2 12 2.5 37t-1.5 37q-9 77 -64 124t-147 56q-19 2 -70 4z" />
    <glyph glyph-name="e" unicode="e" horiz-adv-x="702" 
d="M100 689q8 1 14 1q109 -6 322 -4q112 2 148 4q36 1 43 0q13 -2 19 -13l3 -6l1 -48q0 -42 -1 -52t-8 -16t-15.5 -7t-32.5 0q-41 2 -226 6q-87 2 -110 2q-27 1 -33 -2q-11 -4 -14 -15q-1 -5 -1 -69q-1 -53 0.5 -63.5t7.5 -15.5q7 -6 22 -6t105 5q73 5 80 4q15 -2 21 -13
l4 -7v-47q0 -27 -0.5 -37.5t-2 -15.5t-4.5 -10q-7 -7 -19.5 -8.5t-61.5 1.5q-123 7 -134 5q-15 -4 -18 -17q-2 -6 -1.5 -49t3.5 -49q6 -10 20 -13q7 -1 40 0q32 2 143 4t140 3.5t56 2t33 -1.5q12 -6 15 -18q2 -6 2 -52q0 -28 -0.5 -38.5t-2 -15.5t-5.5 -9q-7 -7 -17 -8
t-49 1q-42 3 -228 3t-221 -2q-31 -2 -39 -1t-14 7.5t-7.5 14t0.5 31.5q2 29 3 98q1 65 0.5 239.5t-2.5 211.5q-3 64 1 72q6 12 21 13z" />
    <glyph glyph-name="e" unicode="&#xeb;" horiz-adv-x="702" 
d="M100 689q8 1 14 1q109 -6 322 -4q112 2 148 4q36 1 43 0q13 -2 19 -13l3 -6l1 -48q0 -42 -1 -52t-8 -16t-15.5 -7t-32.5 0q-41 2 -226 6q-87 2 -110 2q-27 1 -33 -2q-11 -4 -14 -15q-1 -5 -1 -69q-1 -53 0.5 -63.5t7.5 -15.5q7 -6 22 -6t105 5q73 5 80 4q15 -2 21 -13
l4 -7v-47q0 -27 -0.5 -37.5t-2 -15.5t-4.5 -10q-7 -7 -19.5 -8.5t-61.5 1.5q-123 7 -134 5q-15 -4 -18 -17q-2 -6 -1.5 -49t3.5 -49q6 -10 20 -13q7 -1 40 0q32 2 143 4t140 3.5t56 2t33 -1.5q12 -6 15 -18q2 -6 2 -52q0 -28 -0.5 -38.5t-2 -15.5t-5.5 -9q-7 -7 -17 -8
t-49 1q-42 3 -228 3t-221 -2q-31 -2 -39 -1t-14 7.5t-7.5 14t0.5 31.5q2 29 3 98q1 65 0.5 239.5t-2.5 211.5q-3 64 1 72q6 12 21 13z" />
    <glyph glyph-name="e" unicode="&#xea;" horiz-adv-x="702" 
d="M100 689q8 1 14 1q109 -6 322 -4q112 2 148 4q36 1 43 0q13 -2 19 -13l3 -6l1 -48q0 -42 -1 -52t-8 -16t-15.5 -7t-32.5 0q-41 2 -226 6q-87 2 -110 2q-27 1 -33 -2q-11 -4 -14 -15q-1 -5 -1 -69q-1 -53 0.5 -63.5t7.5 -15.5q7 -6 22 -6t105 5q73 5 80 4q15 -2 21 -13
l4 -7v-47q0 -27 -0.5 -37.5t-2 -15.5t-4.5 -10q-7 -7 -19.5 -8.5t-61.5 1.5q-123 7 -134 5q-15 -4 -18 -17q-2 -6 -1.5 -49t3.5 -49q6 -10 20 -13q7 -1 40 0q32 2 143 4t140 3.5t56 2t33 -1.5q12 -6 15 -18q2 -6 2 -52q0 -28 -0.5 -38.5t-2 -15.5t-5.5 -9q-7 -7 -17 -8
t-49 1q-42 3 -228 3t-221 -2q-31 -2 -39 -1t-14 7.5t-7.5 14t0.5 31.5q2 29 3 98q1 65 0.5 239.5t-2.5 211.5q-3 64 1 72q6 12 21 13z" />
    <glyph glyph-name="e" unicode="&#xe9;" horiz-adv-x="702" 
d="M100 689q8 1 14 1q109 -6 322 -4q112 2 148 4q36 1 43 0q13 -2 19 -13l3 -6l1 -48q0 -42 -1 -52t-8 -16t-15.5 -7t-32.5 0q-41 2 -226 6q-87 2 -110 2q-27 1 -33 -2q-11 -4 -14 -15q-1 -5 -1 -69q-1 -53 0.5 -63.5t7.5 -15.5q7 -6 22 -6t105 5q73 5 80 4q15 -2 21 -13
l4 -7v-47q0 -27 -0.5 -37.5t-2 -15.5t-4.5 -10q-7 -7 -19.5 -8.5t-61.5 1.5q-123 7 -134 5q-15 -4 -18 -17q-2 -6 -1.5 -49t3.5 -49q6 -10 20 -13q7 -1 40 0q32 2 143 4t140 3.5t56 2t33 -1.5q12 -6 15 -18q2 -6 2 -52q0 -28 -0.5 -38.5t-2 -15.5t-5.5 -9q-7 -7 -17 -8
t-49 1q-42 3 -228 3t-221 -2q-31 -2 -39 -1t-14 7.5t-7.5 14t0.5 31.5q2 29 3 98q1 65 0.5 239.5t-2.5 211.5q-3 64 1 72q6 12 21 13z" />
    <glyph glyph-name="e" unicode="&#xe8;" horiz-adv-x="702" 
d="M100 689q8 1 14 1q109 -6 322 -4q112 2 148 4q36 1 43 0q13 -2 19 -13l3 -6l1 -48q0 -42 -1 -52t-8 -16t-15.5 -7t-32.5 0q-41 2 -226 6q-87 2 -110 2q-27 1 -33 -2q-11 -4 -14 -15q-1 -5 -1 -69q-1 -53 0.5 -63.5t7.5 -15.5q7 -6 22 -6t105 5q73 5 80 4q15 -2 21 -13
l4 -7v-47q0 -27 -0.5 -37.5t-2 -15.5t-4.5 -10q-7 -7 -19.5 -8.5t-61.5 1.5q-123 7 -134 5q-15 -4 -18 -17q-2 -6 -1.5 -49t3.5 -49q6 -10 20 -13q7 -1 40 0q32 2 143 4t140 3.5t56 2t33 -1.5q12 -6 15 -18q2 -6 2 -52q0 -28 -0.5 -38.5t-2 -15.5t-5.5 -9q-7 -7 -17 -8
t-49 1q-42 3 -228 3t-221 -2q-31 -2 -39 -1t-14 7.5t-7.5 14t0.5 31.5q2 29 3 98q1 65 0.5 239.5t-2.5 211.5q-3 64 1 72q6 12 21 13z" />
    <glyph glyph-name="f" unicode="f" horiz-adv-x="673" 
d="M101 690q6 1 11 0q67 -4 235 -3q153 0 192 1q86 4 92 2q12 -3 17 -16q3 -5 3 -55q0 -41 -1.5 -50t-8.5 -15q-9 -8 -47 -6q-42 3 -225 6q-81 2 -111 3q-29 0 -35.5 -3t-9.5 -10l-3 -7l-1 -133l4 -6q4 -8 10.5 -10t23.5 -2q19 0 96 5q66 4 78.5 3.5t20.5 -7.5
q3 -4 4.5 -6.5t3 -10t1.5 -17.5v-31q0 -37 -1 -46t-7 -15q-7 -8 -19.5 -8.5t-71.5 3.5q-90 5 -107.5 5.5t-23.5 -3.5q-10 -6 -11 -24q0 -16 8 -164q2 -34 1 -44t-6 -16q-4 -4 -6 -5.5t-9.5 -3t-17 -1.5h-32.5q-49 0 -56 3q-12 5 -15 16q-2 8 2 91q2 40 2 251.5t-2 248.5
q-2 36 -2 47q0 29 24 33z" />
    <glyph glyph-name="g" unicode="g" horiz-adv-x="854" 
d="M420 693q16 1 55.5 0.5t53.5 -2.5q118 -16 211 -73q21 -13 28.5 -21.5t7.5 -17.5t-7 -18t-41 -44q-21 -22 -27 -25q-12 -6 -24 0q-5 3 -16 10q-70 51 -164 58q-107 9 -198 -39q-69 -35 -101.5 -92.5t-18.5 -119t71 -108t138 -64.5q39 -8 83 -8q89 0 159 34q25 12 31 24
q4 9 5 27t-3 29t-16 14t-105 -3q-59 -4 -69 1q-11 5 -14 21q-1 8 -1.5 45.5t0.5 44.5q2 16 15 21q6 3 34 2t53 -2q26 -1 82.5 -1t79.5 1q52 3 60 -1q16 -8 14 -38q-5 -80 -2 -162q1 -45 -1 -56t-14 -23q-13 -12 -41 -31q-90 -60 -207 -76q-19 -3 -65.5 -3t-64.5 3
q-37 5 -71 15q-103 28 -178 96.5t-99 155.5q-10 36 -10 79q0 34 3 49q26 137 153 222q98 65 221 76z" />
    <glyph glyph-name="h" unicode="h" horiz-adv-x="824" 
d="M139 692h54q24 -3 27 -26q1 -7 -1 -45q-2 -37 -3 -62t-3 -77q-2 -62 -1.5 -73.5t8.5 -17.5q10 -8 26 -6q23 3 132 4t156 -1q44 -3 56 -2t17.5 6.5t6.5 18t-1 50.5q-2 26 -3.5 67t-3.5 89q-2 39 -1 49.5t6 16.5q6 6 15 7.5t50.5 1.5t50.5 -1.5t15 -8.5q5 -6 5.5 -19
t-2.5 -74q-2 -35 -2 -246t2 -243q2 -41 2.5 -58.5t-0.5 -22.5q-3 -12 -15 -17q-6 -3 -55.5 -3t-55.5 3t-10 7q-8 9 -6 47q9 159 9 177q-1 19 -12 25q-7 3 -38.5 2.5t-59.5 -2.5q-27 -1 -91.5 -1t-91.5 1q-27 2 -59 2.5t-38.5 -2.5t-9.5 -8.5t-2 -36.5q1 -67 7 -158
q3 -41 -9 -50q-6 -4 -14.5 -5t-46.5 -1h-50l-8 4q-7 4 -10 9t-3 27t2 71q2 45 2 232.5t-2 234.5q-3 74 -3 86.5t6 18.5q8 9 56 10z" />
    <glyph glyph-name="i" unicode="i" horiz-adv-x="297" 
d="M101 691q8 1 52 1q37 0 45.5 -1.5t14.5 -8.5q5 -5 6 -13t0 -32q-2 -40 -2 -60q-2 -40 -2 -233.5t2 -234.5q2 -45 2 -68.5t-3.5 -28.5t-10.5 -9l-8 -4h-49q-50 0 -54 2q-15 6 -18 23q-1 7 1.5 49t2.5 272.5t-2.5 272.5t-1.5 49q3 22 25 24z" />
    <glyph glyph-name="i" unicode="&#xef;" horiz-adv-x="297" 
d="M101 691q8 1 52 1q37 0 45.5 -1.5t14.5 -8.5q5 -5 6 -13t0 -32q-2 -40 -2 -60q-2 -40 -2 -233.5t2 -234.5q2 -45 2 -68.5t-3.5 -28.5t-10.5 -9l-8 -4h-49q-50 0 -54 2q-15 6 -18 23q-1 7 1.5 49t2.5 272.5t-2.5 272.5t-1.5 49q3 22 25 24z" />
    <glyph glyph-name="i" unicode="&#xee;" horiz-adv-x="297" 
d="M101 691q8 1 52 1q37 0 45.5 -1.5t14.5 -8.5q5 -5 6 -13t0 -32q-2 -40 -2 -60q-2 -40 -2 -233.5t2 -234.5q2 -45 2 -68.5t-3.5 -28.5t-10.5 -9l-8 -4h-49q-50 0 -54 2q-15 6 -18 23q-1 7 1.5 49t2.5 272.5t-2.5 272.5t-1.5 49q3 22 25 24z" />
    <glyph glyph-name="i" unicode="&#xed;" horiz-adv-x="297" 
d="M101 691q8 1 52 1q37 0 45.5 -1.5t14.5 -8.5q5 -5 6 -13t0 -32q-2 -40 -2 -60q-2 -40 -2 -233.5t2 -234.5q2 -45 2 -68.5t-3.5 -28.5t-10.5 -9l-8 -4h-49q-50 0 -54 2q-15 6 -18 23q-1 7 1.5 49t2.5 272.5t-2.5 272.5t-1.5 49q3 22 25 24z" />
    <glyph glyph-name="i" unicode="&#xec;" horiz-adv-x="297" 
d="M101 691q8 1 52 1q37 0 45.5 -1.5t14.5 -8.5q5 -5 6 -13t0 -32q-2 -40 -2 -60q-2 -40 -2 -233.5t2 -234.5q2 -45 2 -68.5t-3.5 -28.5t-10.5 -9l-8 -4h-49q-50 0 -54 2q-15 6 -18 23q-1 7 1.5 49t2.5 272.5t-2.5 272.5t-1.5 49q3 22 25 24z" />
    <glyph glyph-name="j" unicode="j" horiz-adv-x="755" 
d="M571.5 695q7.5 1 51.5 1q36 -1 45 -2t15 -8q5 -6 6 -15t0 -35q-5 -86 -4 -274q0 -105 -6 -138q-16 -97 -80 -154q-68 -59 -191 -72q-22 -2 -61 -2t-57 2q-69 9 -123 38t-89 75t-47 105q-8 38 3 51q6 6 15.5 7.5t51.5 0.5q48 -1 54 -4q8 -4 11 -10.5t6 -22.5q5 -23 13 -40
q27 -51 105 -66q12 -2 46.5 -2.5t54.5 0.5q67 6 103.5 29t49.5 68q6 20 7 46.5t0 143.5q-1 143 -3 182q-3 70 0 78q2 10 12 15q4 2 11.5 3z" />
    <glyph glyph-name="k" unicode="k" horiz-adv-x="776" 
d="M571 692q13 1 32 1t24 -3q10 -5 10 -14q0 -8 -7.5 -16.5t-30.5 -28.5q-57 -47 -141 -124q-60 -55 -114 -100q-34 -29 -36.5 -32.5t-3 -11t5 -13t24.5 -15.5q34 -18 60.5 -41t65.5 -67q46 -53 68 -69q20 -15 43 -21q11 -3 29 -3q31 0 77 18q20 7 31 -1q9 -6 20 -33
q7 -16 15 -36q10 -22 12 -31t-2 -16q-7 -13 -43 -22q-127 -32 -215 10q-37 18 -66.5 44t-79.5 87q-68 81 -111 93q-15 5 -24 -5q-5 -5 -6 -13q-2 -13 6 -130q6 -75 2 -83q-4 -12 -17 -16q-5 -1 -53 -1h-49l-7 3q-7 4 -10.5 9t-2.5 32q0 27 1 62q4 77 3.5 248.5t-3.5 249.5
q-3 68 2 77q6 8 14 9t52 1h52l6 -3q7 -4 10 -10q5 -10 1 -56q-8 -91 -8 -125q0 -23 8 -28.5t20 2.5q6 4 43 43q36 38 99 102q51 52 63 61.5t25 11.5q9 1 50 2q42 1 56 2z" />
    <glyph glyph-name="l" unicode="l" horiz-adv-x="665" 
d="M101 690q11 1 53 0.5t47 -1.5q13 -4 17 -17q2 -10 -1 -59q-1 -23 -2 -191t-3 -201q-2 -50 -1 -62.5t8 -18.5q9 -7 52 -5q34 2 120 3q144 2 190 4q29 2 38 0.5t15 -6.5q6 -7 7.5 -17t0.5 -51q0 -35 -0.5 -42t-2.5 -12q-4 -6 -10 -10t-27 -4q-20 0 -53 2t-176 2
q-148 1 -252 -3q-22 -1 -29 2.5t-11 9.5t-4 17t2 63q2 45 1.5 264.5t-2.5 252.5q-3 56 1 65q6 13 22 15z" />
    <glyph glyph-name="m" unicode="m" horiz-adv-x="941" 
d="M777 699q62 2 71 -3q11 -5 13 -15.5t0 -44.5q-5 -85 -3 -325q0 -51 0.5 -98t1 -79t1.5 -40q3 -75 1 -83q-4 -14 -18 -18q-5 -2 -55 -2q-42 0 -51 1.5t-15 8.5q-5 7 -5.5 19.5t1.5 73.5q2 32 3 80q2 63 7 172q2 63 -3 73q-3 6 -12 6t-24 -22q-38 -56 -117 -187
q-22 -36 -28 -42q-8 -9 -17 -10.5t-53 -2.5q-51 -2 -59 1q-20 6 -20 34q0 10 -2 28q-6 82 -47 168q-35 72 -80 117q-19 19 -29.5 24t-17.5 -1q-6 -5 -8 -19q-3 -14 4 -137q1 -14 2 -126.5t3 -147.5q3 -71 2.5 -82.5t-6.5 -18.5t-15 -8.5t-50 -1.5q-51 0 -56 2q-14 4 -18 18
q-2 8 2 81q1 33 2 249t-1 250q-3 68 -2.5 80.5t6.5 18.5q5 6 13 7.5t32 0.5q78 -2 134 -29q53 -25 100 -72q54 -54 89 -127q14 -29 27 -66q6 -18 10 -26t7.5 -11t9.5 -3q7 0 14.5 8t24.5 36q42 66 79 122q56 86 80 124q21 35 34 41q6 3 38 4z" />
    <glyph glyph-name="n" unicode="n" horiz-adv-x="820" 
d="M648 700q68 1 77 -3q12 -6 14 -17q2 -8 -1 -88q-2 -61 0 -280q1 -120 1.5 -175.5t1.5 -69.5q4 -43 1 -56t-16 -17q-8 -2 -44 -1q-52 3 -81 13q-79 27 -141 120q-38 57 -91 180q-53 121 -79 164q-51 81 -72 59q-2 -2 -4 -6q-5 -10 -2 -80q4 -87 6 -226q2 -101 3 -128
q4 -71 1 -78q-4 -15 -17 -19q-6 -1 -54.5 -1t-54.5 1q-14 4 -18 18q-2 7 2 94q1 37 1.5 263t-2.5 264q-2 32 -1 41.5t6 15.5q3 5 9.5 8t36.5 2q50 -2 83 -10q43 -11 80 -35q61 -40 112 -120q37 -58 101 -210q57 -136 81 -148q10 -5 16 1q8 9 6 57q0 2 -4 103q-3 73 -3 103
q-5 154 -8 208q-2 24 1 34t12 15q6 3 41 4z" />
    <glyph glyph-name="n" unicode="&#xf1;" horiz-adv-x="820" 
d="M648 700q68 1 77 -3q12 -6 14 -17q2 -8 -1 -88q-2 -61 0 -280q1 -120 1.5 -175.5t1.5 -69.5q4 -43 1 -56t-16 -17q-8 -2 -44 -1q-52 3 -81 13q-79 27 -141 120q-38 57 -91 180q-53 121 -79 164q-51 81 -72 59q-2 -2 -4 -6q-5 -10 -2 -80q4 -87 6 -226q2 -101 3 -128
q4 -71 1 -78q-4 -15 -17 -19q-6 -1 -54.5 -1t-54.5 1q-14 4 -18 18q-2 7 2 94q1 37 1.5 263t-2.5 264q-2 32 -1 41.5t6 15.5q3 5 9.5 8t36.5 2q50 -2 83 -10q43 -11 80 -35q61 -40 112 -120q37 -58 101 -210q57 -136 81 -148q10 -5 16 1q8 9 6 57q0 2 -4 103q-3 73 -3 103
q-5 154 -8 208q-2 24 1 34t12 15q6 3 41 4z" />
    <glyph glyph-name="o" unicode="o" 
d="M407 704q15 1 47.5 1.5t47.5 -1.5q165 -16 272 -126q75 -77 94 -182q3 -15 3 -50t-3 -50q-9 -49 -30 -92q-21 -45 -56 -82.5t-78 -65.5t-95 -46t-108 -23q-20 -2 -56.5 -1t-53.5 4q-105 16 -183 68q-88 59 -131 146q-33 67 -33 142q0 54 17 104q13 36 33 69
q49 76 131 125t182 60zM501 567q-100 12 -186 -29q-52 -25 -86.5 -66t-44.5 -90q-8 -36 0 -73q10 -49 44.5 -89.5t88.5 -66.5q65 -31 141 -31t142 32q54 25 88.5 67t44.5 92q2 12 2 33q0 45 -21 86q-28 54 -85 90t-128 45z" />
    <glyph glyph-name="o" unicode="&#xf8;" 
d="M407 704q15 1 47.5 1.5t47.5 -1.5q165 -16 272 -126q75 -77 94 -182q3 -15 3 -50t-3 -50q-9 -49 -30 -92q-21 -45 -56 -82.5t-78 -65.5t-95 -46t-108 -23q-20 -2 -56.5 -1t-53.5 4q-105 16 -183 68q-88 59 -131 146q-33 67 -33 142q0 54 17 104q13 36 33 69
q49 76 131 125t182 60zM501 567q-100 12 -186 -29q-52 -25 -86.5 -66t-44.5 -90q-8 -36 0 -73q10 -49 44.5 -89.5t88.5 -66.5q65 -31 141 -31t142 32q54 25 88.5 67t44.5 92q2 12 2 33q0 45 -21 86q-28 54 -85 90t-128 45z" />
    <glyph glyph-name="o" unicode="&#xf6;" 
d="M407 704q15 1 47.5 1.5t47.5 -1.5q165 -16 272 -126q75 -77 94 -182q3 -15 3 -50t-3 -50q-9 -49 -30 -92q-21 -45 -56 -82.5t-78 -65.5t-95 -46t-108 -23q-20 -2 -56.5 -1t-53.5 4q-105 16 -183 68q-88 59 -131 146q-33 67 -33 142q0 54 17 104q13 36 33 69
q49 76 131 125t182 60zM501 567q-100 12 -186 -29q-52 -25 -86.5 -66t-44.5 -90q-8 -36 0 -73q10 -49 44.5 -89.5t88.5 -66.5q65 -31 141 -31t142 32q54 25 88.5 67t44.5 92q2 12 2 33q0 45 -21 86q-28 54 -85 90t-128 45z" />
    <glyph glyph-name="o" unicode="&#xf5;" 
d="M407 704q15 1 47.5 1.5t47.5 -1.5q165 -16 272 -126q75 -77 94 -182q3 -15 3 -50t-3 -50q-9 -49 -30 -92q-21 -45 -56 -82.5t-78 -65.5t-95 -46t-108 -23q-20 -2 -56.5 -1t-53.5 4q-105 16 -183 68q-88 59 -131 146q-33 67 -33 142q0 54 17 104q13 36 33 69
q49 76 131 125t182 60zM501 567q-100 12 -186 -29q-52 -25 -86.5 -66t-44.5 -90q-8 -36 0 -73q10 -49 44.5 -89.5t88.5 -66.5q65 -31 141 -31t142 32q54 25 88.5 67t44.5 92q2 12 2 33q0 45 -21 86q-28 54 -85 90t-128 45z" />
    <glyph glyph-name="o" unicode="&#xf4;" 
d="M407 704q15 1 47.5 1.5t47.5 -1.5q165 -16 272 -126q75 -77 94 -182q3 -15 3 -50t-3 -50q-9 -49 -30 -92q-21 -45 -56 -82.5t-78 -65.5t-95 -46t-108 -23q-20 -2 -56.5 -1t-53.5 4q-105 16 -183 68q-88 59 -131 146q-33 67 -33 142q0 54 17 104q13 36 33 69
q49 76 131 125t182 60zM501 567q-100 12 -186 -29q-52 -25 -86.5 -66t-44.5 -90q-8 -36 0 -73q10 -49 44.5 -89.5t88.5 -66.5q65 -31 141 -31t142 32q54 25 88.5 67t44.5 92q2 12 2 33q0 45 -21 86q-28 54 -85 90t-128 45z" />
    <glyph glyph-name="o" unicode="&#xf3;" 
d="M407 704q15 1 47.5 1.5t47.5 -1.5q165 -16 272 -126q75 -77 94 -182q3 -15 3 -50t-3 -50q-9 -49 -30 -92q-21 -45 -56 -82.5t-78 -65.5t-95 -46t-108 -23q-20 -2 -56.5 -1t-53.5 4q-105 16 -183 68q-88 59 -131 146q-33 67 -33 142q0 54 17 104q13 36 33 69
q49 76 131 125t182 60zM501 567q-100 12 -186 -29q-52 -25 -86.5 -66t-44.5 -90q-8 -36 0 -73q10 -49 44.5 -89.5t88.5 -66.5q65 -31 141 -31t142 32q54 25 88.5 67t44.5 92q2 12 2 33q0 45 -21 86q-28 54 -85 90t-128 45z" />
    <glyph glyph-name="o" unicode="&#xf2;" 
d="M407 704q15 1 47.5 1.5t47.5 -1.5q165 -16 272 -126q75 -77 94 -182q3 -15 3 -50t-3 -50q-9 -49 -30 -92q-21 -45 -56 -82.5t-78 -65.5t-95 -46t-108 -23q-20 -2 -56.5 -1t-53.5 4q-105 16 -183 68q-88 59 -131 146q-33 67 -33 142q0 54 17 104q13 36 33 69
q49 76 131 125t182 60zM501 567q-100 12 -186 -29q-52 -25 -86.5 -66t-44.5 -90q-8 -36 0 -73q10 -49 44.5 -89.5t88.5 -66.5q65 -31 141 -31t142 32q54 25 88.5 67t44.5 92q2 12 2 33q0 45 -21 86q-28 54 -85 90t-128 45z" />
    <glyph glyph-name="p" unicode="p" horiz-adv-x="771" 
d="M95 697q9 4 52 1q22 -2 169 -3t169 -4q65 -9 111 -27q70 -28 106 -76q17 -22 25 -47q12 -34 9.5 -73.5t-18.5 -72.5q-58 -115 -267 -128q-47 -2 -139 2q-35 2 -58 2q-19 0 -25 -2t-11 -9q-5 -8 -3 -47q6 -106 8 -173q1 -25 -2 -31q-5 -12 -19 -16q-6 -1 -55 -1l-50 1
l-6 3q-11 6 -13 16t0 45.5t3 81.5t1 231.5t-1 219t-2 60.5t1 33q4 11 15 14zM291 562q-49 3 -59 0q-13 -3 -17 -16q-1 -6 -2 -66q0 -68 8 -76q7 -5 16.5 -6t40.5 0q38 2 108 3q91 2 129 10q65 13 81 46q13 26 -4 50t-58 37q-52 16 -171 17q-41 0 -72 1z" />
    <glyph glyph-name="q" unicode="q" 
d="M420 711q46 4 94 -2q62 -8 113 -28q122 -49 189 -149q50 -75 55 -162.5t-35 -164.5q-42 -79 -127 -132q-18 -10 -23.5 -15t-6.5 -10q-5 -18 35 -38q39 -19 81 -23q17 -2 20 -3q18 -4 22 -20q1 -6 2 -55v-49l-3 -6q-10 -17 -46 -11q-63 11 -121 41.5t-100 74.5
q-28 30 -35.5 34.5t-23.5 4.5q-14 -1 -30 -3q-50 -5 -103 4q-139 23 -231 116q-82 81 -99 190q-3 15 -3 45.5t2 43.5q14 86 64 154q52 70 133 112.5t177 50.5zM507 572q-42 6 -81 2q-76 -8 -133 -42q-45 -27 -74 -66t-37 -83q-5 -31 0 -62q16 -88 103 -145q35 -24 83 -39.5
t62 -7.5q14 7 2 31q-17 32 -19 40q-1 7 1 13q4 8 12 12t48 18q42 15 52 12q8 -2 13 -10t14 -34q13 -37 21 -47q4 -5 10.5 -8t13.5 -1q13 2 39 21q77 57 95 138q7 33 1 66q-4 28 -17 55q-27 53 -83 90t-126 47z" />
    <glyph glyph-name="r" unicode="r" horiz-adv-x="787" 
d="M92 708q6 3 15 3t78 -2q34 -2 146 -2q124 0 168 -6q109 -16 173 -69q30 -25 48 -61q21 -44 16 -97t-34 -92q-19 -26 -44 -43q-55 -36 -146 -46q-29 -3 -36 -10q-8 -8 -2 -21q3 -6 20.5 -29.5t29.5 -37.5q44 -50 99 -62q18 -4 51 -6q9 -1 15 -1.5t10 -2t6.5 -4t4.5 -6.5
q4 -7 5 -55t-1 -55q-4 -21 -26 -23q-15 -1 -52 6t-64 16q-38 13 -68.5 32t-56.5 46.5t-52 67.5q-19 29 -29.5 45t-19.5 27.5t-15 17.5t-15 12q-35 27 -73 32q-15 1 -23 -7q-8 -7 -7 -30q0 -40 10 -187q1 -22 -0.5 -31t-8 -15t-17 -7t-52.5 -1q-40 1 -47.5 2t-14.5 8
q-5 7 -5.5 18t1.5 54q3 68 3.5 269t-2.5 269q-2 35 -2 51q0 17 3.5 23.5t10.5 9.5zM293 575q-53 1 -57 0q-1 0 -5 -1t-9 -5q-6 -6 -7.5 -17t-1.5 -62q0 -60 3 -67q6 -11 18 -13q5 -1 69 0q63 2 93 2q156 0 193 46q18 21 12 44q-15 57 -145 68q-16 2 -70 3q-54 0 -93 2z" />
    <glyph glyph-name="s" unicode="s" horiz-adv-x="788" 
d="M356 711q74 5 154 -8.5t148 -43.5q36 -16 47.5 -24.5t11.5 -21.5q0 -10 -21 -40q-19 -26 -26 -35q-14 -20 -23 -24q-8 -3 -15 -1.5t-27 12.5q-50 26 -102 38q-58 14 -120 16q-131 4 -167 -50q-11 -18 -11 -37q0 -14 3 -22q11 -24 43 -36q31 -12 116 -19q65 -5 114.5 -13
t88.5 -19t67 -25.5t48 -33.5q54 -50 54 -128q1 -30 -8 -56q-25 -75 -114 -118t-217 -43q-63 0 -120 11q-62 11 -118.5 35.5t-92.5 54.5q-26 23 -14 42q7 11 69 60q14 11 24 11t24 -10q56 -43 134 -59q77 -16 156.5 -7t119.5 39q14 11 20 26q13 31 -23 56q-21 14 -59.5 22
t-123.5 17q-95 10 -140.5 18t-80.5 20q-60 21 -91.5 61t-31.5 95q0 44 20 85q15 31 43 59q24 24 57 43q76 44 184 53z" />
    <glyph glyph-name="t" unicode="t" horiz-adv-x="722" 
d="M47 702q6 1 56 -2q65 -3 237 -3.5t276 2.5l59 2l8 -4q8 -4 12 -12l4 -8l1 -48q0 -41 -1 -50.5t-7.5 -15.5t-16.5 -7t-48 1q-133 7 -167 7q-22 0 -27.5 -1.5t-10.5 -9.5t-2 -65q2 -47 3 -219t3 -199q3 -55 -1 -64q-2 -6 -5.5 -9t-9.5 -5q-6 -3 -55.5 -3t-56.5 3
q-13 5 -16 20q-3 12 2 86q1 13 2 185.5t3 212.5q3 40 1 50t-12 15q-7 4 -20 4q-21 0 -164 -8q-37 -2 -46.5 -1t-16.5 8q-7 6 -8 16.5t-1 52.5q1 48 3 53q7 13 22 16z" />
    <glyph glyph-name="u" unicode="u" horiz-adv-x="823" 
d="M86 701q5 2 54.5 2t54.5 -2q15 -4 18 -18q2 -6 -1 -96q-1 -38 -2 -195q-1 -163 3 -178q1 -2 3 -9q17 -43 73 -63q51 -19 140 -16q83 2 128 25q14 7 26 19q25 25 30 62q1 12 0 188.5t-3 213.5q-2 32 -1 42.5t6 16.5q7 7 14.5 8t51.5 1h54l6 -3q7 -4 10.5 -10.5t3 -27.5
t-1.5 -52q-2 -31 -3 -204q0 -142 -1 -170t-7 -52q-39 -149 -215 -184q-58 -12 -126 -10.5t-122 14.5q-72 17 -118 55q-71 59 -86 154q-2 16 -2 186q-1 172 -2 202q-4 74 -1 83q3 13 16 18z" />
    <glyph glyph-name="u" unicode="&#xfc;" horiz-adv-x="823" 
d="M86 701q5 2 54.5 2t54.5 -2q15 -4 18 -18q2 -6 -1 -96q-1 -38 -2 -195q-1 -163 3 -178q1 -2 3 -9q17 -43 73 -63q51 -19 140 -16q83 2 128 25q14 7 26 19q25 25 30 62q1 12 0 188.5t-3 213.5q-2 32 -1 42.5t6 16.5q7 7 14.5 8t51.5 1h54l6 -3q7 -4 10.5 -10.5t3 -27.5
t-1.5 -52q-2 -31 -3 -204q0 -142 -1 -170t-7 -52q-39 -149 -215 -184q-58 -12 -126 -10.5t-122 14.5q-72 17 -118 55q-71 59 -86 154q-2 16 -2 186q-1 172 -2 202q-4 74 -1 83q3 13 16 18z" />
    <glyph glyph-name="u" unicode="&#xfb;" horiz-adv-x="823" 
d="M86 701q5 2 54.5 2t54.5 -2q15 -4 18 -18q2 -6 -1 -96q-1 -38 -2 -195q-1 -163 3 -178q1 -2 3 -9q17 -43 73 -63q51 -19 140 -16q83 2 128 25q14 7 26 19q25 25 30 62q1 12 0 188.5t-3 213.5q-2 32 -1 42.5t6 16.5q7 7 14.5 8t51.5 1h54l6 -3q7 -4 10.5 -10.5t3 -27.5
t-1.5 -52q-2 -31 -3 -204q0 -142 -1 -170t-7 -52q-39 -149 -215 -184q-58 -12 -126 -10.5t-122 14.5q-72 17 -118 55q-71 59 -86 154q-2 16 -2 186q-1 172 -2 202q-4 74 -1 83q3 13 16 18z" />
    <glyph glyph-name="u" unicode="&#xfa;" horiz-adv-x="823" 
d="M86 701q5 2 54.5 2t54.5 -2q15 -4 18 -18q2 -6 -1 -96q-1 -38 -2 -195q-1 -163 3 -178q1 -2 3 -9q17 -43 73 -63q51 -19 140 -16q83 2 128 25q14 7 26 19q25 25 30 62q1 12 0 188.5t-3 213.5q-2 32 -1 42.5t6 16.5q7 7 14.5 8t51.5 1h54l6 -3q7 -4 10.5 -10.5t3 -27.5
t-1.5 -52q-2 -31 -3 -204q0 -142 -1 -170t-7 -52q-39 -149 -215 -184q-58 -12 -126 -10.5t-122 14.5q-72 17 -118 55q-71 59 -86 154q-2 16 -2 186q-1 172 -2 202q-4 74 -1 83q3 13 16 18z" />
    <glyph glyph-name="u" unicode="&#xf9;" horiz-adv-x="823" 
d="M86 701q5 2 54.5 2t54.5 -2q15 -4 18 -18q2 -6 -1 -96q-1 -38 -2 -195q-1 -163 3 -178q1 -2 3 -9q17 -43 73 -63q51 -19 140 -16q83 2 128 25q14 7 26 19q25 25 30 62q1 12 0 188.5t-3 213.5q-2 32 -1 42.5t6 16.5q7 7 14.5 8t51.5 1h54l6 -3q7 -4 10.5 -10.5t3 -27.5
t-1.5 -52q-2 -31 -3 -204q0 -142 -1 -170t-7 -52q-39 -149 -215 -184q-58 -12 -126 -10.5t-122 14.5q-72 17 -118 55q-71 59 -86 154q-2 16 -2 186q-1 172 -2 202q-4 74 -1 83q3 13 16 18z" />
    <glyph glyph-name="v" unicode="v" horiz-adv-x="784" 
d="M35 698q5 1 48 1q54 -1 65.5 -2.5t19.5 -9.5q7 -7 23 -46q28 -70 77 -181q36 -80 66 -157t36.5 -91.5t12.5 -20.5q9 -8 19 1q8 7 33 73q39 100 83 199q52 117 73 171q14 37 19 45.5t15 13.5l7 3l53 2q64 1 71 -4q11 -6 10 -20q-1 -8 -26 -57q-36 -71 -116 -252
q-51 -114 -73 -165q-41 -89 -63 -145q-15 -38 -21 -48t-17 -14q-5 -2 -57 -2t-58 2q-10 2 -16.5 11t-16.5 36q-23 60 -64 149q-24 54 -72 161q-81 184 -118 257q-29 59 -30 67q-1 19 17 23z" />
    <glyph glyph-name="w" unicode="w" horiz-adv-x="964" 
d="M47 698q7 2 55 1q39 0 50 -1.5t17 -6.5q9 -8 16 -44q11 -56 33 -153q15 -67 33 -157q16 -79 24 -87q9 -9 18 0q6 5 12.5 22.5t44.5 120.5q37 102 50 139q11 35 29 40q6 1 53 1q40 0 50 -1t16 -8q7 -8 23 -54q10 -28 30.5 -85t38.5 -105.5t21 -55.5q7 -15 16.5 -17.5
t15.5 9.5q5 10 19 82q18 88 37 173q14 63 24 111t12.5 55t7.5 12q7 7 17.5 8.5t54.5 1.5q52 1 57 -2q16 -8 12 -29q-1 -8 -8 -31q-22 -70 -60 -224q-25 -98 -31 -123q-40 -153 -56 -236q-9 -46 -17 -54q-4 -4 -10 -5.5t-17.5 -2t-40.5 -0.5q-40 0 -48.5 1.5t-16.5 8.5
q-7 7 -24 55q-14 40 -36 98q-21 57 -40 108q-22 63 -28.5 77t-13.5 17q-14 6 -24 -17q-4 -9 -19 -51q-23 -62 -56 -151q-22 -59 -33 -89q-9 -27 -14 -37t-11 -14q-7 -4 -18 -5t-47 -1q-38 0 -48 1t-15 7q-9 9 -17 52q-14 74 -51 217l-40 160q-34 133 -53 197q-15 50 -10 61
q4 8 16 11z" />
    <glyph glyph-name="x" unicode="x" horiz-adv-x="876" 
d="M36 701q7 2 72 -1q28 -1 50 -1q26 -1 37.5 -6t28.5 -25q20 -24 86 -98q53 -60 89 -105q14 -17 21.5 -24t14 -9t12.5 2q9 4 39 42q22 27 41 49q20 23 77 87q18 21 40 47q19 22 27.5 29t19.5 9q9 1 47.5 2t62.5 3q45 3 52 -10q6 -9 -1 -21q-4 -7 -45 -47q-62 -62 -134 -140
q-42 -46 -89 -93q-47 -48 -49 -53q-5 -11 0 -22q3 -6 39.5 -42t90 -93.5t103 -107t52.5 -54.5q6 -13 0 -21q-5 -6 -16.5 -8t-38.5 0q-20 1 -65 2q-44 1 -52 5t-15 10.5t-31 34.5l-39 45q-45 52 -78 93q-24 29 -31 35q-16 15 -33 0q-6 -6 -33 -39t-48 -57q-4 -5 -25.5 -29.5
t-32.5 -37.5q-38 -44 -42.5 -48t-12 -7.5t-52.5 -4.5t-64 -2q-28 -2 -39 -0.5t-16 8.5q-7 10 1 23q4 6 46 48q55 54 98 100q62 66 102 107q34 34 37 39q6 12 1 23q-2 5 -49 53q-47 47 -89 93q-72 78 -136 141q-39 39 -43 46q-6 11 -2.5 19t14.5 11z" />
    <glyph glyph-name="y" unicode="y" horiz-adv-x="821" 
d="M32 708q6 1 20 0t61 -2q37 -1 47.5 -2.5t18.5 -6.5q7 -5 37 -49q18 -26 58 -81q51 -71 88 -126q31 -45 35 -48q15 -11 29 2q4 5 29 41q40 60 71 102q53 74 81 115q23 33 27 37q9 10 21 13q3 1 50 3t72 2q24 0 29 -13q4 -8 -2.5 -19.5t-28.5 -36.5q-44 -51 -138 -178
q-73 -98 -133 -176q-26 -33 -28 -50q-2 -28 5 -175q3 -50 0 -58q-4 -11 -15 -16q-6 -3 -56 -3q-40 0 -49 1t-15 6q-6 6 -8 19q-1 6 1 51q5 97 5 160q0 15 -2 23.5t-8.5 19t-27.5 36.5q-38 49 -82 108q-131 175 -193 249q-18 21 -18 32q0 16 19 20z" />
    <glyph glyph-name="y" unicode="&#xff;" horiz-adv-x="821" 
d="M32 708q6 1 20 0t61 -2q37 -1 47.5 -2.5t18.5 -6.5q7 -5 37 -49q18 -26 58 -81q51 -71 88 -126q31 -45 35 -48q15 -11 29 2q4 5 29 41q40 60 71 102q53 74 81 115q23 33 27 37q9 10 21 13q3 1 50 3t72 2q24 0 29 -13q4 -8 -2.5 -19.5t-28.5 -36.5q-44 -51 -138 -178
q-73 -98 -133 -176q-26 -33 -28 -50q-2 -28 5 -175q3 -50 0 -58q-4 -11 -15 -16q-6 -3 -56 -3q-40 0 -49 1t-15 6q-6 6 -8 19q-1 6 1 51q5 97 5 160q0 15 -2 23.5t-8.5 19t-27.5 36.5q-38 49 -82 108q-131 175 -193 249q-18 21 -18 32q0 16 19 20z" />
    <glyph glyph-name="y" unicode="&#xfd;" horiz-adv-x="821" 
d="M32 708q6 1 20 0t61 -2q37 -1 47.5 -2.5t18.5 -6.5q7 -5 37 -49q18 -26 58 -81q51 -71 88 -126q31 -45 35 -48q15 -11 29 2q4 5 29 41q40 60 71 102q53 74 81 115q23 33 27 37q9 10 21 13q3 1 50 3t72 2q24 0 29 -13q4 -8 -2.5 -19.5t-28.5 -36.5q-44 -51 -138 -178
q-73 -98 -133 -176q-26 -33 -28 -50q-2 -28 5 -175q3 -50 0 -58q-4 -11 -15 -16q-6 -3 -56 -3q-40 0 -49 1t-15 6q-6 6 -8 19q-1 6 1 51q5 97 5 160q0 15 -2 23.5t-8.5 19t-27.5 36.5q-38 49 -82 108q-131 175 -193 249q-18 21 -18 32q0 16 19 20z" />
    <glyph glyph-name="z" unicode="z" horiz-adv-x="735" 
d="M69 706q6 2 88 -2q39 -2 229 -2t220 2q31 1 36 2q6 1 15 -0.5t14.5 -7t6.5 -10.5q4 -12 1 -70q-2 -23 -6 -31.5t-22 -28.5q-54 -56 -132 -146q-99 -113 -199 -216q-45 -46 -48 -55q-8 -17 9 -21q11 -3 73 0q67 3 170 6q65 1 102 3t40 1q2 0 7 -1q12 -2 18 -16q3 -5 3 -56
v-50l-4 -8q-4 -7 -11 -10.5t-24.5 -3.5t-41.5 1.5t-205 3.5q-234 2 -302 -3q-38 -3 -49 0q-13 4 -17 17q-1 6 -1 30.5t2 33.5q2 12 8.5 21.5t30.5 33.5q46 48 125 138q123 140 205 224q45 47 54 59t5 20q-3 8 -17.5 9t-67.5 -1q-66 -3 -186 -6q-35 -1 -75 -3q-50 -3 -58 1
q-10 5 -14 17q-2 7 -1.5 56t3.5 55q5 10 16 14z" />
    <glyph glyph-name="nonbreakingspace" unicode="&#xa0;" horiz-adv-x="348" 
 />
    <glyph glyph-name="sterling" unicode="&#xa3;" horiz-adv-x="776" 
d="M646.5 -1q-6.5 -1 -14.5 -1q-91 6 -236.5 6.5t-223.5 -4.5q-43 -3 -53 2q-11 5 -14 18q-1 5 -1 19t1 22q2 12 9 20.5t31 28.5q22 19 43 36q6 5 17.5 15t14.5 12q101 85 105 93q2 4 2 10t-4 10q-6 6 -35 10q-85 12 -137 48q-15 10 -29 23.5t-25 29t-16 30.5q-12 30 -12 61
q0 40 17 75q27 52 89.5 87.5t145.5 46.5q90 11 172 -7q41 -8 76 -23.5t62 -35.5t46 -45t28 -53q11 -33 -4 -45q-8 -7 -25 -7q-14 0 -50.5 2.5t-39.5 3.5q-12 3 -27 20q-16 19 -39 32q-66 34 -163.5 27t-139.5 -49q-10 -10 -12 -17q-10 -30 26 -53q34 -23 102 -33
q32 -4 130 1q32 1 41.5 0t15.5 -7t7 -14.5t1 -44.5q0 -56 -6 -67q-5 -10 -41 -41q-60 -49 -80 -68q-29 -28 -9 -39q11 -6 193 6q41 3 52 3q25 0 31 -18q3 -6 3 -53.5t-2 -53.5q-3 -11 -13 -16q-3 -2 -9.5 -3z" />
    <glyph glyph-name="softhyphen" unicode="&#xad;" horiz-adv-x="0" 
 />
    <glyph glyph-name="emdash" unicode="&#x2014;" horiz-adv-x="897" 
d="M54 328v64q0 56 1 69q4 6 15 7l166 -1t316 -2t204 1q59 3 71 2q13 -2 14 -13q1 -8 1 -49v-21q0 -58 -3 -64l-3 -2l-2 -2q-5 -2 -49 0l-95 3q-28 1 -127.5 0.5t-197.5 -1t-184.5 -1.5t-89.5 -1q-28 0 -31 1l-1 1q-1 2 -2 3z" />
    <glyph glyph-name="Euro" unicode="&#x20ac;" horiz-adv-x="968" 
d="M485 547v-1q-84 -24 -136 -81h35q224 0 265 3q36 2 44 1q7 -1 8 -9q1 -4 1 -31v-13q0 -38 -2 -41l-1 -1l-1 -1l-1 -1q-3 -1 -30 0l-59 2q-55 2 -305 1q-6 -30 0 -59h81q224 0 265 2q36 2 44 1q7 -1 8 -8q1 -5 1 -31v-14q0 -37 -2 -41l-1 -1h-1l-1 -1q-3 -2 -30 -1l-59 2
q-44 2 -258 2q6 -7 12 -13q66 -63 173 -79q47 -7 97 -2q57 7 102 29q22 11 44 26q20 14 29 14q14 0 35 -25q9 -11 25 -30q25 -28 25 -39t-6.5 -18.5t-25.5 -18.5q-103 -61 -225 -71.5t-229 32.5q-71 29 -125 76.5t-84 108.5l-4 9q-28 -1 -38 -1q-43 -2 -66 -2q-16 0 -18 1
l-1 1t-1 2l-2 3v42q0 35 1 44q2 4 9 5q7 0 43 -2q22 -1 48 -2q-1 20 -1 40q0 4 2 18h-14q-43 -2 -66 -2h-18v1h-1q-1 1 -1 3l-2 3v41q0 36 1 44q2 4 9 5t43 -1q28 -2 72 -2q21 45 57 87q36 40 85 70.5t106.5 49t116.5 21.5q54 3 103 -4q111 -14 207 -74q39 -23 34 -42
q-2 -7 -7 -13.5t-27 -30.5q-14 -15 -24 -26q-16 -18 -29 -18q-11 0 -30 15q-28 21 -61 35q-51 22 -115 25t-123 -14z" />
    </font>
</defs>
</svg>
